M48
;Layer_Color=9474304
;FILE_FORMAT=2:5
INCH,LZ
;TYPE=PLATED
T01F00S00C0.01200
T03F00S00C0.02800
T04F00S00C0.04000
%
T01
X003Y00095
X0037Y0016
Y0024
X0045Y0022
Y0018
Y0014018
X0049Y0016
X0053
X0057
X0055Y0029
X0051
X00475Y0033
X0045Y0026
X0059Y0029
X0075Y0021
X0079
X0081Y0018
X0073
X0079Y0049
Y0054
Y0059
X0073Y0065
Y0075
X0069
Y0079
X0073
X0075Y0089
X007
X0084Y0084
X0088Y0072
X00625Y0068
X0047
X0045Y0072018
X0048Y0074
Y0078
X0045Y0081
X0048Y0085
X00365Y0086
X00355Y0078
X00315
X0037Y0074
X0029Y00625
X0032Y0058
Y0042
X0029Y0039
X0049Y0058
X0065Y0054
X00635Y005
X00295Y00905
X0097Y0087
Y0081
X0095Y006
Y0055
X00975Y00475
X01025
X01075
X01125
X01175
Y004
X01125
X01075
X01025
X00975
Y00325
X01025
X01075
X01125
X01175
X0124Y004
X0156
X0149Y0053
X0151Y0061
X0158
X01615Y00635
X0165Y0061
X0172
X01775
X01815Y0063
X0186
X0186079Y0070079
X0192Y0067
X0195Y0073
X0205Y0075
X0216035Y00735
X0222728
X0229421
X0236114
X0242807
X02495
X0246193Y00675
X02395
X0232807
X0226114
X0219421
X0229Y00565
Y0050004
Y0043508
X02362Y00468
Y00532
X02428
Y00468
X02395Y0039496
X0236161Y00325
X0242854
X0249547
X024624Y00265
X0239547
X0232854
X0226161
X0219468
X0222776Y00325
X0229468
X0216083
X0198Y003
X0191
X0192Y0038
X0199
X02025Y00448
X0206Y0045
Y00515
X02025Y00518
X01875Y005
Y00466
X0184Y0045
Y00515
Y0038
X0177
X0169Y002
X0162Y0014
X0205Y0022
X0239508Y0060504
X0246Y0089
X01815Y0077
X0166Y0079
X0156
X0131Y0083
X025Y0089
X0254
X02595Y0082
X0259539Y00735
X0263004Y0073469
Y0070122
Y0066776
Y0063429
Y0060083
Y0056736
Y005339
Y0050043
Y0046697
Y004335
Y0040004
Y0036658
Y0033311
Y0029965
Y0026618
X0256279Y00265
X0252933
X0250008Y00435
Y0049996
Y0056492
X0265Y0018
T03
X00375Y0045
Y005
Y0055
X01375Y005
X01425
T04
X0035Y0005
X0045
X0055
X0065
X0075
X0085
X0095
X0105
X0115
X0125
X0135
X0145
X0155
X0165
X0175
X0185
X0195
X0205
X0215
X0225
X0235
X0245
X0255
X0265
Y0095
X0255
X0245
X0235
X0225
X0215
X0205
X0195
X0185
X0175
X0165
X0155
X0145
X0135
X0125
X0115
X0105
X0095
X0085
X0075
X0065
X0055
X0045
X0035
M30
