G04*
G04 #@! TF.GenerationSoftware,Altium Limited,Altium Designer,24.5.1 (21)*
G04*
G04 Layer_Physical_Order=3*
G04 Layer_Color=32768*
%FSLAX25Y25*%
%MOIN*%
G70*
G04*
G04 #@! TF.SameCoordinates,768C5CE1-1E73-4EAB-B0B2-AB3AEEDBA731*
G04*
G04*
G04 #@! TF.FilePolarity,Negative*
G04*
G01*
G75*
%ADD56C,0.06800*%
%ADD72C,0.00010*%
%AMTHOVALD73*
21,1,0.03150,0.08362,0,0,360.0*
1,1,0.08362,-0.01575,0.00000*
1,1,0.08362,0.01575,0.00000*
21,0,0.03150,0.06362,0,0,360.0*
1,0,0.06362,-0.01575,0.00000*
1,0,0.06362,0.01575,0.00000*
4,0,4,-0.00868,-0.00707,-0.03824,-0.03664,-0.05238,-0.02249,-0.02282,0.00707,-0.00868,-0.00707,0.0*
4,0,4,0.02282,-0.00707,0.05238,0.02249,0.03824,0.03664,0.00868,0.00707,0.02282,-0.00707,0.0*
4,0,4,-0.02282,-0.00707,-0.05238,0.02249,-0.03824,0.03664,-0.00868,0.00707,-0.02282,-0.00707,0.0*
4,0,4,0.00868,-0.00707,0.03824,-0.03664,0.05238,-0.02249,0.02282,0.00707,0.00868,-0.00707,0.0*
%
%ADD73THOVALD73*%

%AMTHOVALD74*
21,1,0.04724,0.08362,0,0,360.0*
1,1,0.08362,-0.02362,0.00000*
1,1,0.08362,0.02362,0.00000*
21,0,0.04724,0.06362,0,0,360.0*
1,0,0.06362,-0.02362,0.00000*
1,0,0.06362,0.02362,0.00000*
4,0,4,-0.01655,-0.00707,-0.04612,-0.03664,-0.06026,-0.02249,-0.03069,0.00707,-0.01655,-0.00707,0.0*
4,0,4,0.03069,-0.00707,0.06026,0.02249,0.04612,0.03664,0.01655,0.00707,0.03069,-0.00707,0.0*
4,0,4,-0.03069,-0.00707,-0.06026,0.02249,-0.04612,0.03664,-0.01655,0.00707,-0.03069,-0.00707,0.0*
4,0,4,0.01655,-0.00707,0.04612,-0.03664,0.06026,-0.02249,0.03069,0.00707,0.01655,-0.00707,0.0*
%
%ADD74THOVALD74*%

%ADD75C,0.08000*%
G04:AMPARAMS|DCode=76|XSize=100mil|YSize=100mil|CornerRadius=0mil|HoleSize=0mil|Usage=FLASHONLY|Rotation=0.000|XOffset=0mil|YOffset=0mil|HoleType=Round|Shape=Relief|Width=20mil|Gap=10mil|Entries=4|*
%AMTHD76*
7,0,0,0.10000,0.08000,0.02000,45*
%
%ADD76THD76*%
%ADD77C,0.05200*%
D56*
X137500Y50000D02*
D03*
X142500D02*
D03*
X37500Y45000D02*
D03*
Y50000D02*
D03*
Y55000D02*
D03*
D72*
X0Y0D02*
Y100000D01*
X270000D01*
Y0D02*
Y100000D01*
X0Y0D02*
X270000D01*
D73*
X22500Y60984D02*
D03*
Y95000D02*
D03*
Y39016D02*
D03*
Y5000D02*
D03*
D74*
X6752Y60984D02*
D03*
Y95000D02*
D03*
Y39016D02*
D03*
Y5000D02*
D03*
D75*
X265000D02*
D03*
X245000D02*
D03*
X235000D02*
D03*
X225000D02*
D03*
X215000D02*
D03*
X205000D02*
D03*
X195000D02*
D03*
X185000D02*
D03*
X175000D02*
D03*
X165000D02*
D03*
X155000D02*
D03*
X145000D02*
D03*
X135000D02*
D03*
X125000D02*
D03*
X115000D02*
D03*
X105000D02*
D03*
X95000D02*
D03*
X85000D02*
D03*
X75000D02*
D03*
X65000D02*
D03*
X55000D02*
D03*
X45000D02*
D03*
X255000Y95000D02*
D03*
X245000D02*
D03*
X235000D02*
D03*
X225000D02*
D03*
X215000D02*
D03*
X205000D02*
D03*
X195000D02*
D03*
X185000D02*
D03*
X175000D02*
D03*
X165000D02*
D03*
X155000D02*
D03*
X145000D02*
D03*
X135000D02*
D03*
X125000D02*
D03*
X115000D02*
D03*
X105000D02*
D03*
X95000D02*
D03*
X85000D02*
D03*
X75000D02*
D03*
X65000D02*
D03*
X55000D02*
D03*
X35000D02*
D03*
D76*
X255000Y5000D02*
D03*
X35000D02*
D03*
X265000Y95000D02*
D03*
X45000D02*
D03*
D77*
X177500Y61000D02*
D03*
X75000Y89000D02*
D03*
X84000Y84000D02*
D03*
X62500Y68000D02*
D03*
X63500Y50000D02*
D03*
X31500Y78000D02*
D03*
X35500D02*
D03*
X48000Y74000D02*
D03*
Y78000D02*
D03*
X45000Y22000D02*
D03*
Y18000D02*
D03*
X187500Y46600D02*
D03*
Y50000D02*
D03*
X79000Y21000D02*
D03*
X75000D02*
D03*
X202500Y44800D02*
D03*
Y51800D02*
D03*
X49000Y16000D02*
D03*
X53000D02*
D03*
X57000D02*
D03*
X149000Y53000D02*
D03*
X165000Y61000D02*
D03*
X79000Y49000D02*
D03*
X158000Y61000D02*
D03*
X151000D02*
D03*
X88000Y72000D02*
D03*
X97000Y87000D02*
D03*
X172000Y61000D02*
D03*
X186000Y63000D02*
D03*
X192000Y67000D02*
D03*
X186079Y70079D02*
D03*
X195000Y73000D02*
D03*
X166000Y79000D02*
D03*
X177000Y38000D02*
D03*
X184000D02*
D03*
X192000D02*
D03*
X199000D02*
D03*
X191000Y30000D02*
D03*
X198000D02*
D03*
X254000Y89000D02*
D03*
X250000D02*
D03*
X181500Y77000D02*
D03*
X246193Y67500D02*
D03*
X216035Y73500D02*
D03*
X216083Y32500D02*
D03*
X246240Y26500D02*
D03*
X249547Y32500D02*
D03*
X239547Y26500D02*
D03*
X242854Y32500D02*
D03*
X232854Y26500D02*
D03*
X236161Y32500D02*
D03*
X226161Y26500D02*
D03*
X229468Y32500D02*
D03*
X219468Y26500D02*
D03*
X222776Y32500D02*
D03*
X222728Y73500D02*
D03*
X219421Y67500D02*
D03*
X229421Y73500D02*
D03*
X226114Y67500D02*
D03*
X236114Y73500D02*
D03*
X232807Y67500D02*
D03*
X239500D02*
D03*
X242807Y73500D02*
D03*
X249500D02*
D03*
M02*
