G04*
G04 #@! TF.GenerationSoftware,Altium Limited,Altium Designer,24.5.1 (21)*
G04*
G04 Layer_Color=32896*
%FSLAX25Y25*%
%MOIN*%
G70*
G04*
G04 #@! TF.SameCoordinates,768C5CE1-1E73-4EAB-B0B2-AB3AEEDBA731*
G04*
G04*
G04 #@! TF.FilePolarity,Positive*
G04*
G01*
G75*
%ADD11C,0.00600*%
%ADD61C,0.01200*%
%ADD78C,0.01000*%
D11*
X267000Y72201D02*
X265001Y74200D01*
X263001Y72201D01*
X265001Y70201D02*
Y67536D01*
Y66203D02*
Y63537D01*
Y62204D02*
Y59538D01*
X267000Y58205D02*
X263001D01*
Y56206D01*
X263668Y55539D01*
X265001D01*
X265667Y56206D01*
Y58205D01*
X263001Y54206D02*
Y52874D01*
Y53540D01*
X267000D01*
Y54206D01*
Y52874D01*
Y50874D02*
X263001D01*
X267000Y48208D01*
X263001D01*
X267000Y46876D02*
Y45543D01*
Y46209D01*
X263001D01*
X263668Y46876D01*
X265001Y43543D02*
Y40877D01*
Y39544D02*
Y36879D01*
Y35546D02*
Y32880D01*
X267000Y31547D02*
X265001Y29548D01*
X263001Y31547D01*
X201400Y59599D02*
Y56600D01*
X200400Y55600D01*
X199401Y56600D01*
X198401Y55600D01*
X197401Y56600D01*
Y59599D01*
X195402D02*
Y56600D01*
X194402Y55600D01*
X193403Y56600D01*
X192403Y55600D01*
X191403Y56600D01*
Y59599D01*
X189404D02*
Y56600D01*
X188404Y55600D01*
X187405Y56600D01*
X186405Y55600D01*
X185405Y56600D01*
Y59599D01*
X183406Y55600D02*
Y56600D01*
X182406D01*
Y55600D01*
X183406D01*
X177408D02*
Y60598D01*
Y58599D01*
X178407D01*
X176408D01*
X177408D01*
Y60598D01*
X176408Y61598D01*
X170410Y55600D02*
X172409D01*
X173409Y56600D01*
Y58599D01*
X172409Y59599D01*
X170410D01*
X169410Y58599D01*
Y57599D01*
X173409D01*
X163412Y61598D02*
Y55600D01*
X166411D01*
X167411Y56600D01*
Y58599D01*
X166411Y59599D01*
X163412D01*
X158414Y55600D02*
X160413D01*
X161413Y56600D01*
Y58599D01*
X160413Y59599D01*
X158414D01*
X157414Y58599D01*
Y57599D01*
X161413D01*
X155415Y59599D02*
X153416Y55600D01*
X151416Y59599D01*
X146418Y55600D02*
X148417D01*
X149417Y56600D01*
Y58599D01*
X148417Y59599D01*
X146418D01*
X145418Y58599D01*
Y57599D01*
X149417D01*
X143419Y55600D02*
X141419D01*
X142419D01*
Y61598D01*
X143419D01*
X138420Y55600D02*
Y56600D01*
X137421D01*
Y55600D01*
X138420D01*
X129423Y59599D02*
X132422D01*
X133422Y58599D01*
Y56600D01*
X132422Y55600D01*
X129423D01*
X126424D02*
X124425D01*
X123425Y56600D01*
Y58599D01*
X124425Y59599D01*
X126424D01*
X127424Y58599D01*
Y56600D01*
X126424Y55600D01*
X121426D02*
Y59599D01*
X120426D01*
X119427Y58599D01*
Y55600D01*
Y58599D01*
X118427Y59599D01*
X117427Y58599D01*
Y55600D01*
X179400Y35599D02*
Y31600D01*
Y33599D01*
X176734D01*
Y35599D01*
Y31600D01*
X175401D02*
Y34266D01*
X174068Y35599D01*
X172736Y34266D01*
Y31600D01*
Y33599D01*
X175401D01*
X171403Y35599D02*
Y32933D01*
X170070Y31600D01*
X168737Y32933D01*
Y35599D01*
X164738D02*
X167404D01*
Y31600D01*
X164738D01*
X167404Y33599D02*
X166071D01*
X160739Y35599D02*
X163405D01*
Y33599D01*
X162072D01*
X163405D01*
Y31600D01*
X159406Y35599D02*
Y32266D01*
X158740Y31600D01*
X157407D01*
X156741Y32266D01*
Y35599D01*
X155408Y31600D02*
Y35599D01*
X152742Y31600D01*
Y35599D01*
X147410D02*
Y32933D01*
X146077Y31600D01*
X144745Y32933D01*
Y35599D01*
X143412Y31600D02*
X142079D01*
X142745D01*
Y35599D01*
X143412Y34932D01*
X140079Y35599D02*
X138747D01*
X139413D01*
Y31600D01*
X140079D01*
X138747D01*
X136747D02*
X135414D01*
X136081D01*
Y35599D01*
X136747Y34932D01*
X185067Y39600D02*
X186400Y40933D01*
Y42266D01*
X185067Y43599D01*
X180402Y42932D02*
X181068Y43599D01*
X182401D01*
X183068Y42932D01*
Y40266D01*
X182401Y39600D01*
X181068D01*
X180402Y40266D01*
X179069Y39600D02*
X177736Y40933D01*
Y42266D01*
X179069Y43599D01*
X173071Y39600D02*
X175737D01*
X173071Y42266D01*
Y42932D01*
X173737Y43599D01*
X175070D01*
X175737Y42932D01*
X171738D02*
X171072Y43599D01*
X169739D01*
X169072Y42932D01*
Y40266D01*
X169739Y39600D01*
X171072D01*
X171738Y40266D01*
Y42932D01*
X165074Y39600D02*
X167739D01*
X165074Y42266D01*
Y42932D01*
X165740Y43599D01*
X167073D01*
X167739Y42932D01*
X161741Y39600D02*
Y43599D01*
X163741Y41599D01*
X161075D01*
X153077Y43599D02*
X155743D01*
Y41599D01*
X154410D01*
X155743D01*
Y39600D01*
X149079Y43599D02*
X151744D01*
Y39600D01*
X149079D01*
X151744Y41599D02*
X150412D01*
X147746Y43599D02*
Y39600D01*
X145747D01*
X145080Y40266D01*
Y42932D01*
X145747Y43599D01*
X147746D01*
X141081D02*
X143747D01*
Y39600D01*
X141081D01*
X143747Y41599D02*
X142414D01*
X139748Y43599D02*
Y40933D01*
X138416Y39600D01*
X137083Y40933D01*
Y43599D01*
X133084D02*
X135750D01*
Y39600D01*
X133084D01*
X135750Y41599D02*
X134417D01*
X131751Y43599D02*
Y39600D01*
X129085D01*
X33668Y23834D02*
X33001Y24501D01*
Y25834D01*
X33668Y26500D01*
X36334D01*
X37000Y25834D01*
Y24501D01*
X36334Y23834D01*
X35001D01*
Y25167D01*
X37000Y22501D02*
X33001D01*
X37000Y19836D01*
X33001D01*
Y18503D02*
X37000D01*
Y16503D01*
X36334Y15837D01*
X33668D01*
X33001Y16503D01*
Y18503D01*
X43001Y26500D02*
Y25167D01*
Y25834D01*
X47000D01*
Y26500D01*
Y25167D01*
X43001Y21168D02*
Y22501D01*
X43668Y23168D01*
X46334D01*
X47000Y22501D01*
Y21168D01*
X46334Y20502D01*
X43668D01*
X43001Y21168D01*
X47000Y17170D02*
X43001D01*
X45001Y19169D01*
Y16503D01*
X43001Y15170D02*
Y12505D01*
X43668D01*
X46334Y15170D01*
X47000D01*
X53001Y26500D02*
Y25167D01*
Y25834D01*
X57000D01*
Y26500D01*
Y25167D01*
X53001Y21168D02*
Y22501D01*
X53668Y23168D01*
X56334D01*
X57000Y22501D01*
Y21168D01*
X56334Y20502D01*
X53668D01*
X53001Y21168D01*
X57000Y17170D02*
X53001D01*
X55001Y19169D01*
Y16503D01*
X53668Y15170D02*
X53001Y14504D01*
Y13171D01*
X53668Y12505D01*
X54334D01*
X55001Y13171D01*
X55667Y12505D01*
X56334D01*
X57000Y13171D01*
Y14504D01*
X56334Y15170D01*
X55667D01*
X55001Y14504D01*
X54334Y15170D01*
X53668D01*
X55001Y14504D02*
Y13171D01*
X63001Y26500D02*
X66334D01*
X67000Y25834D01*
Y24501D01*
X66334Y23834D01*
X63001D01*
X63668Y19836D02*
X63001Y20502D01*
Y21835D01*
X63668Y22501D01*
X64334D01*
X65001Y21835D01*
Y20502D01*
X65667Y19836D01*
X66334D01*
X67000Y20502D01*
Y21835D01*
X66334Y22501D01*
X63001Y18503D02*
X67000D01*
Y16503D01*
X66334Y15837D01*
X65667D01*
X65001Y16503D01*
Y18503D01*
Y16503D01*
X64334Y15837D01*
X63668D01*
X63001Y16503D01*
Y18503D01*
X65001Y14504D02*
Y11838D01*
X83001Y26500D02*
Y25167D01*
Y25834D01*
X87000D01*
Y26500D01*
Y25167D01*
X83001Y21168D02*
Y22501D01*
X83668Y23168D01*
X86334D01*
X87000Y22501D01*
Y21168D01*
X86334Y20502D01*
X83668D01*
X83001Y21168D01*
X87000Y16503D02*
Y19169D01*
X84334Y16503D01*
X83668D01*
X83001Y17170D01*
Y18503D01*
X83668Y19169D01*
X87000Y15170D02*
Y13837D01*
Y14504D01*
X83001D01*
X83668Y15170D01*
X93001Y26500D02*
Y25167D01*
Y25834D01*
X97000D01*
Y26500D01*
Y25167D01*
X93001Y21168D02*
Y22501D01*
X93668Y23168D01*
X96334D01*
X97000Y22501D01*
Y21168D01*
X96334Y20502D01*
X93668D01*
X93001Y21168D01*
X97000Y16503D02*
Y19169D01*
X94334Y16503D01*
X93668D01*
X93001Y17170D01*
Y18503D01*
X93668Y19169D01*
X93001Y12505D02*
X93668Y13837D01*
X95001Y15170D01*
X96334D01*
X97000Y14504D01*
Y13171D01*
X96334Y12505D01*
X95667D01*
X95001Y13171D01*
Y15170D01*
X103001Y26500D02*
Y25167D01*
Y25834D01*
X107000D01*
Y26500D01*
Y25167D01*
X103001Y21168D02*
Y22501D01*
X103668Y23168D01*
X106333D01*
X107000Y22501D01*
Y21168D01*
X106333Y20502D01*
X103668D01*
X103001Y21168D01*
X103668Y19169D02*
X103001Y18503D01*
Y17170D01*
X103668Y16503D01*
X104334D01*
X105001Y17170D01*
Y17836D01*
Y17170D01*
X105667Y16503D01*
X106333D01*
X107000Y17170D01*
Y18503D01*
X106333Y19169D01*
X103668Y15170D02*
X103001Y14504D01*
Y13171D01*
X103668Y12505D01*
X104334D01*
X105001Y13171D01*
Y13837D01*
Y13171D01*
X105667Y12505D01*
X106333D01*
X107000Y13171D01*
Y14504D01*
X106333Y15170D01*
X113001Y26500D02*
Y25167D01*
Y25834D01*
X117000D01*
Y26500D01*
Y25167D01*
X113001Y21168D02*
Y22501D01*
X113668Y23168D01*
X116333D01*
X117000Y22501D01*
Y21168D01*
X116333Y20502D01*
X113668D01*
X113001Y21168D01*
X113668Y19169D02*
X113001Y18503D01*
Y17170D01*
X113668Y16503D01*
X114334D01*
X115001Y17170D01*
Y17836D01*
Y17170D01*
X115667Y16503D01*
X116333D01*
X117000Y17170D01*
Y18503D01*
X116333Y19169D01*
X117000Y13171D02*
X113001D01*
X115001Y15170D01*
Y12505D01*
X73001Y26500D02*
X76334D01*
X77000Y25834D01*
Y24501D01*
X76334Y23834D01*
X73001D01*
X73668Y19836D02*
X73001Y20502D01*
Y21835D01*
X73668Y22501D01*
X74334D01*
X75001Y21835D01*
Y20502D01*
X75667Y19836D01*
X76334D01*
X77000Y20502D01*
Y21835D01*
X76334Y22501D01*
X73001Y18503D02*
X77000D01*
Y16503D01*
X76334Y15837D01*
X75667D01*
X75001Y16503D01*
Y18503D01*
Y16503D01*
X74334Y15837D01*
X73668D01*
X73001Y16503D01*
Y18503D01*
X75001Y14504D02*
Y11838D01*
X73668Y13171D02*
X76334D01*
X133001Y26500D02*
Y25167D01*
Y25834D01*
X137000D01*
Y26500D01*
Y25167D01*
X133001Y21168D02*
Y22501D01*
X133668Y23168D01*
X136334D01*
X137000Y22501D01*
Y21168D01*
X136334Y20502D01*
X133668D01*
X133001Y21168D01*
X133668Y19169D02*
X133001Y18503D01*
Y17170D01*
X133668Y16503D01*
X134334D01*
X135001Y17170D01*
Y17836D01*
Y17170D01*
X135667Y16503D01*
X136334D01*
X137000Y17170D01*
Y18503D01*
X136334Y19169D01*
X133001Y12505D02*
X133668Y13837D01*
X135001Y15170D01*
X136334D01*
X137000Y14504D01*
Y13171D01*
X136334Y12505D01*
X135667D01*
X135001Y13171D01*
Y15170D01*
X143001Y26500D02*
Y25167D01*
Y25834D01*
X147000D01*
Y26500D01*
Y25167D01*
X143001Y21168D02*
Y22501D01*
X143668Y23168D01*
X146334D01*
X147000Y22501D01*
Y21168D01*
X146334Y20502D01*
X143668D01*
X143001Y21168D01*
X143668Y19169D02*
X143001Y18503D01*
Y17170D01*
X143668Y16503D01*
X144334D01*
X145001Y17170D01*
Y17836D01*
Y17170D01*
X145667Y16503D01*
X146334D01*
X147000Y17170D01*
Y18503D01*
X146334Y19169D01*
X143001Y15170D02*
Y12505D01*
X143668D01*
X146334Y15170D01*
X147000D01*
X153001Y26500D02*
Y25167D01*
Y25834D01*
X157000D01*
Y26500D01*
Y25167D01*
X153001Y21168D02*
Y22501D01*
X153668Y23168D01*
X156333D01*
X157000Y22501D01*
Y21168D01*
X156333Y20502D01*
X153668D01*
X153001Y21168D01*
X153668Y19169D02*
X153001Y18503D01*
Y17170D01*
X153668Y16503D01*
X154334D01*
X155001Y17170D01*
Y17836D01*
Y17170D01*
X155667Y16503D01*
X156333D01*
X157000Y17170D01*
Y18503D01*
X156333Y19169D01*
X153668Y15170D02*
X153001Y14504D01*
Y13171D01*
X153668Y12505D01*
X154334D01*
X155001Y13171D01*
X155667Y12505D01*
X156333D01*
X157000Y13171D01*
Y14504D01*
X156333Y15170D01*
X155667D01*
X155001Y14504D01*
X154334Y15170D01*
X153668D01*
X155001Y14504D02*
Y13171D01*
X163001Y26500D02*
Y25167D01*
Y25834D01*
X167000D01*
Y26500D01*
Y25167D01*
X163001Y21168D02*
Y22501D01*
X163668Y23168D01*
X166333D01*
X167000Y22501D01*
Y21168D01*
X166333Y20502D01*
X163668D01*
X163001Y21168D01*
X163668Y19169D02*
X163001Y18503D01*
Y17170D01*
X163668Y16503D01*
X164334D01*
X165001Y17170D01*
Y17836D01*
Y17170D01*
X165667Y16503D01*
X166333D01*
X167000Y17170D01*
Y18503D01*
X166333Y19169D01*
Y15170D02*
X167000Y14504D01*
Y13171D01*
X166333Y12505D01*
X163668D01*
X163001Y13171D01*
Y14504D01*
X163668Y15170D01*
X164334D01*
X165001Y14504D01*
Y12505D01*
X123001Y26500D02*
Y25167D01*
Y25834D01*
X127000D01*
Y26500D01*
Y25167D01*
X123001Y21168D02*
Y22501D01*
X123668Y23168D01*
X126333D01*
X127000Y22501D01*
Y21168D01*
X126333Y20502D01*
X123668D01*
X123001Y21168D01*
X123668Y19169D02*
X123001Y18503D01*
Y17170D01*
X123668Y16503D01*
X124334D01*
X125001Y17170D01*
Y17836D01*
Y17170D01*
X125667Y16503D01*
X126333D01*
X127000Y17170D01*
Y18503D01*
X126333Y19169D01*
X123001Y12505D02*
Y15170D01*
X125001D01*
X124334Y13837D01*
Y13171D01*
X125001Y12505D01*
X126333D01*
X127000Y13171D01*
Y14504D01*
X126333Y15170D01*
X183001Y26500D02*
Y25167D01*
Y25834D01*
X187000D01*
Y26500D01*
Y25167D01*
X183001Y21168D02*
Y22501D01*
X183668Y23168D01*
X186334D01*
X187000Y22501D01*
Y21168D01*
X186334Y20502D01*
X183668D01*
X183001Y21168D01*
X187000Y17170D02*
X183001D01*
X185001Y19169D01*
Y16503D01*
X187000Y15170D02*
Y13837D01*
Y14504D01*
X183001D01*
X183668Y15170D01*
X193001Y26500D02*
Y25167D01*
Y25834D01*
X197000D01*
Y26500D01*
Y25167D01*
X193001Y21168D02*
Y22501D01*
X193668Y23168D01*
X196334D01*
X197000Y22501D01*
Y21168D01*
X196334Y20502D01*
X193668D01*
X193001Y21168D01*
X197000Y17170D02*
X193001D01*
X195001Y19169D01*
Y16503D01*
X197000Y12505D02*
Y15170D01*
X194334Y12505D01*
X193668D01*
X193001Y13171D01*
Y14504D01*
X193668Y15170D01*
X203001Y26500D02*
Y23834D01*
Y25167D01*
X207000D01*
X203001Y22501D02*
X207000Y19836D01*
X203001D02*
X207000Y22501D01*
X203001Y18503D02*
X207000D01*
Y16503D01*
X206334Y15837D01*
X203668D01*
X203001Y16503D01*
Y18503D01*
X217000Y26500D02*
X213001D01*
Y24501D01*
X213668Y23834D01*
X215001D01*
X215667Y24501D01*
Y26500D01*
Y25167D02*
X217000Y23834D01*
X213001Y22501D02*
X217000Y19836D01*
X213001D02*
X217000Y22501D01*
X213001Y18503D02*
X217000D01*
Y16503D01*
X216334Y15837D01*
X213668D01*
X213001Y16503D01*
Y18503D01*
X173001Y26500D02*
Y25167D01*
Y25834D01*
X177000D01*
Y26500D01*
Y25167D01*
X173001Y21168D02*
Y22501D01*
X173668Y23168D01*
X176333D01*
X177000Y22501D01*
Y21168D01*
X176333Y20502D01*
X173668D01*
X173001Y21168D01*
X177000Y17170D02*
X173001D01*
X175001Y19169D01*
Y16503D01*
X173668Y15170D02*
X173001Y14504D01*
Y13171D01*
X173668Y12505D01*
X176333D01*
X177000Y13171D01*
Y14504D01*
X176333Y15170D01*
X173668D01*
X223001Y26500D02*
Y25167D01*
Y25834D01*
X227000D01*
Y26500D01*
Y25167D01*
X223001Y21168D02*
Y22501D01*
X223668Y23168D01*
X226334D01*
X227000Y22501D01*
Y21168D01*
X226334Y20502D01*
X223668D01*
X223001Y21168D01*
X227000Y17170D02*
X223001D01*
X225001Y19169D01*
Y16503D01*
X223001Y12505D02*
Y15170D01*
X225001D01*
X224334Y13837D01*
Y13171D01*
X225001Y12505D01*
X226334D01*
X227000Y13171D01*
Y14504D01*
X226334Y15170D01*
X263668Y26500D02*
X263001Y25834D01*
Y24501D01*
X263668Y23834D01*
X264334D01*
X265001Y24501D01*
Y25167D01*
Y24501D01*
X265667Y23834D01*
X266334D01*
X267000Y24501D01*
Y25834D01*
X266334Y26500D01*
X263001Y22501D02*
X265667D01*
X267000Y21168D01*
X265667Y19836D01*
X263001D01*
X263668Y18503D02*
X263001Y17836D01*
Y16503D01*
X263668Y15837D01*
X264334D01*
X265001Y16503D01*
Y17170D01*
Y16503D01*
X265667Y15837D01*
X266334D01*
X267000Y16503D01*
Y17836D01*
X266334Y18503D01*
X253668Y23834D02*
X253001Y24501D01*
Y25834D01*
X253668Y26500D01*
X256334D01*
X257000Y25834D01*
Y24501D01*
X256334Y23834D01*
X255001D01*
Y25167D01*
X257000Y22501D02*
X253001D01*
X257000Y19836D01*
X253001D01*
Y18503D02*
X257000D01*
Y16503D01*
X256334Y15837D01*
X253668D01*
X253001Y16503D01*
Y18503D01*
X243001Y23834D02*
Y26500D01*
X247000D01*
Y23834D01*
X245001Y26500D02*
Y25167D01*
X247000Y22501D02*
X243001D01*
X247000Y19836D01*
X243001D01*
X233001Y26500D02*
Y25167D01*
Y25834D01*
X237000D01*
Y26500D01*
Y25167D01*
X233001Y21168D02*
Y22501D01*
X233668Y23168D01*
X236334D01*
X237000Y22501D01*
Y21168D01*
X236334Y20502D01*
X233668D01*
X233001Y21168D01*
X237000Y17170D02*
X233001D01*
X235001Y19169D01*
Y16503D01*
X233001Y12505D02*
X233668Y13837D01*
X235001Y15170D01*
X236334D01*
X237000Y14504D01*
Y13171D01*
X236334Y12505D01*
X235667D01*
X235001Y13171D01*
Y15170D01*
X253668Y87900D02*
X253001Y87234D01*
Y85901D01*
X253668Y85234D01*
X254334D01*
X255001Y85901D01*
Y86567D01*
Y85901D01*
X255667Y85234D01*
X256334D01*
X257000Y85901D01*
Y87234D01*
X256334Y87900D01*
X253001Y83901D02*
X255667D01*
X257000Y82568D01*
X255667Y81235D01*
X253001D01*
X253668Y79903D02*
X253001Y79236D01*
Y77903D01*
X253668Y77237D01*
X254334D01*
X255001Y77903D01*
Y78570D01*
Y77903D01*
X255667Y77237D01*
X256334D01*
X257000Y77903D01*
Y79236D01*
X256334Y79903D01*
X243001Y87900D02*
Y86567D01*
Y87234D01*
X247000D01*
Y87900D01*
Y86567D01*
X243001Y82568D02*
Y83901D01*
X243668Y84568D01*
X246334D01*
X247000Y83901D01*
Y82568D01*
X246334Y81902D01*
X243668D01*
X243001Y82568D01*
X243668Y80569D02*
X243001Y79903D01*
Y78570D01*
X243668Y77903D01*
X246334D01*
X247000Y78570D01*
Y79903D01*
X246334Y80569D01*
X243668D01*
X233001Y87900D02*
Y86567D01*
Y87234D01*
X237000D01*
Y87900D01*
Y86567D01*
X233001Y82568D02*
Y83901D01*
X233668Y84568D01*
X236334D01*
X237000Y83901D01*
Y82568D01*
X236334Y81902D01*
X233668D01*
X233001Y82568D01*
X237000Y80569D02*
Y79236D01*
Y79903D01*
X233001D01*
X233668Y80569D01*
X223001Y87900D02*
Y86567D01*
Y87234D01*
X227000D01*
Y87900D01*
Y86567D01*
X223001Y82568D02*
Y83901D01*
X223668Y84568D01*
X226334D01*
X227000Y83901D01*
Y82568D01*
X226334Y81902D01*
X223668D01*
X223001Y82568D01*
X227000Y77903D02*
Y80569D01*
X224334Y77903D01*
X223668D01*
X223001Y78570D01*
Y79903D01*
X223668Y80569D01*
X213001Y87900D02*
Y86567D01*
Y87234D01*
X217000D01*
Y87900D01*
Y86567D01*
X213001Y82568D02*
Y83901D01*
X213668Y84568D01*
X216334D01*
X217000Y83901D01*
Y82568D01*
X216334Y81902D01*
X213668D01*
X213001Y82568D01*
X213668Y80569D02*
X213001Y79903D01*
Y78570D01*
X213668Y77903D01*
X214334D01*
X215001Y78570D01*
Y79236D01*
Y78570D01*
X215667Y77903D01*
X216334D01*
X217000Y78570D01*
Y79903D01*
X216334Y80569D01*
X203001Y87900D02*
Y86567D01*
Y87234D01*
X207000D01*
Y87900D01*
Y86567D01*
X203001Y82568D02*
Y83901D01*
X203668Y84568D01*
X206334D01*
X207000Y83901D01*
Y82568D01*
X206334Y81902D01*
X203668D01*
X203001Y82568D01*
X207000Y78570D02*
X203001D01*
X205001Y80569D01*
Y77903D01*
X63001Y87900D02*
Y86567D01*
Y87234D01*
X67000D01*
Y87900D01*
Y86567D01*
X63001Y82568D02*
Y83901D01*
X63668Y84568D01*
X66334D01*
X67000Y83901D01*
Y82568D01*
X66334Y81902D01*
X63668D01*
X63001Y82568D01*
X67000Y80569D02*
Y79236D01*
Y79903D01*
X63001D01*
X63668Y80569D01*
Y77237D02*
X63001Y76570D01*
Y75237D01*
X63668Y74571D01*
X64334D01*
X65001Y75237D01*
X65667Y74571D01*
X66334D01*
X67000Y75237D01*
Y76570D01*
X66334Y77237D01*
X65667D01*
X65001Y76570D01*
X64334Y77237D01*
X63668D01*
X65001Y76570D02*
Y75237D01*
X53001Y85234D02*
Y87900D01*
X55001D01*
X54334Y86567D01*
Y85901D01*
X55001Y85234D01*
X56334D01*
X57000Y85901D01*
Y87234D01*
X56334Y87900D01*
X53001Y83901D02*
X55667D01*
X57000Y82568D01*
X55667Y81235D01*
X53001D01*
X43668Y85234D02*
X43001Y85901D01*
Y87234D01*
X43668Y87900D01*
X46334D01*
X47000Y87234D01*
Y85901D01*
X46334Y85234D01*
X45001D01*
Y86567D01*
X47000Y83901D02*
X43001D01*
X47000Y81235D01*
X43001D01*
Y79903D02*
X47000D01*
Y77903D01*
X46334Y77237D01*
X43668D01*
X43001Y77903D01*
Y79903D01*
X37000Y87900D02*
X33001D01*
X37000Y85234D01*
X33001D01*
X33668Y81235D02*
X33001Y81902D01*
Y83235D01*
X33668Y83901D01*
X36334D01*
X37000Y83235D01*
Y81902D01*
X36334Y81235D01*
X113001Y87900D02*
Y86567D01*
Y87234D01*
X117000D01*
Y87900D01*
Y86567D01*
X113001Y82568D02*
Y83901D01*
X113668Y84568D01*
X116333D01*
X117000Y83901D01*
Y82568D01*
X116333Y81902D01*
X113668D01*
X113001Y82568D01*
X117000Y80569D02*
Y79236D01*
Y79903D01*
X113001D01*
X113668Y80569D01*
Y77237D02*
X113001Y76570D01*
Y75237D01*
X113668Y74571D01*
X114334D01*
X115001Y75237D01*
Y75904D01*
Y75237D01*
X115667Y74571D01*
X116333D01*
X117000Y75237D01*
Y76570D01*
X116333Y77237D01*
X103001Y87900D02*
Y86567D01*
Y87234D01*
X107000D01*
Y87900D01*
Y86567D01*
X103001Y82568D02*
Y83901D01*
X103668Y84568D01*
X106333D01*
X107000Y83901D01*
Y82568D01*
X106333Y81902D01*
X103668D01*
X103001Y82568D01*
X107000Y80569D02*
Y79236D01*
Y79903D01*
X103001D01*
X103668Y80569D01*
X107000Y75237D02*
X103001D01*
X105001Y77237D01*
Y74571D01*
X93001Y87900D02*
Y86567D01*
Y87234D01*
X97000D01*
Y87900D01*
Y86567D01*
X93001Y82568D02*
Y83901D01*
X93668Y84568D01*
X96334D01*
X97000Y83901D01*
Y82568D01*
X96334Y81902D01*
X93668D01*
X93001Y82568D01*
X97000Y80569D02*
Y79236D01*
Y79903D01*
X93001D01*
X93668Y80569D01*
X93001Y74571D02*
Y77237D01*
X95001D01*
X94334Y75904D01*
Y75237D01*
X95001Y74571D01*
X96334D01*
X97000Y75237D01*
Y76570D01*
X96334Y77237D01*
X83001Y87900D02*
Y86567D01*
Y87234D01*
X87000D01*
Y87900D01*
Y86567D01*
X83001Y82568D02*
Y83901D01*
X83668Y84568D01*
X86334D01*
X87000Y83901D01*
Y82568D01*
X86334Y81902D01*
X83668D01*
X83001Y82568D01*
X87000Y80569D02*
Y79236D01*
Y79903D01*
X83001D01*
X83668Y80569D01*
X83001Y74571D02*
X83668Y75904D01*
X85001Y77237D01*
X86334D01*
X87000Y76570D01*
Y75237D01*
X86334Y74571D01*
X85667D01*
X85001Y75237D01*
Y77237D01*
X73001Y87900D02*
Y86567D01*
Y87234D01*
X77000D01*
Y87900D01*
Y86567D01*
X73001Y82568D02*
Y83901D01*
X73668Y84568D01*
X76334D01*
X77000Y83901D01*
Y82568D01*
X76334Y81902D01*
X73668D01*
X73001Y82568D01*
X77000Y80569D02*
Y79236D01*
Y79903D01*
X73001D01*
X73668Y80569D01*
X73001Y77237D02*
Y74571D01*
X73668D01*
X76334Y77237D01*
X77000D01*
X163001Y87900D02*
Y86567D01*
Y87234D01*
X167000D01*
Y87900D01*
Y86567D01*
X163001Y82568D02*
Y83901D01*
X163668Y84568D01*
X166333D01*
X167000Y83901D01*
Y82568D01*
X166333Y81902D01*
X163668D01*
X163001Y82568D01*
X163668Y80569D02*
X163001Y79903D01*
Y78570D01*
X163668Y77903D01*
X164334D01*
X165001Y78570D01*
X165667Y77903D01*
X166333D01*
X167000Y78570D01*
Y79903D01*
X166333Y80569D01*
X165667D01*
X165001Y79903D01*
X164334Y80569D01*
X163668D01*
X165001Y79903D02*
Y78570D01*
X153001Y87900D02*
Y86567D01*
Y87234D01*
X157000D01*
Y87900D01*
Y86567D01*
X153001Y82568D02*
Y83901D01*
X153668Y84568D01*
X156333D01*
X157000Y83901D01*
Y82568D01*
X156333Y81902D01*
X153668D01*
X153001Y82568D01*
X156333Y80569D02*
X157000Y79903D01*
Y78570D01*
X156333Y77903D01*
X153668D01*
X153001Y78570D01*
Y79903D01*
X153668Y80569D01*
X154334D01*
X155001Y79903D01*
Y77903D01*
X143001Y87900D02*
Y86567D01*
Y87234D01*
X147000D01*
Y87900D01*
Y86567D01*
X143001Y82568D02*
Y83901D01*
X143668Y84568D01*
X146334D01*
X147000Y83901D01*
Y82568D01*
X146334Y81902D01*
X143668D01*
X143001Y82568D01*
X147000Y80569D02*
Y79236D01*
Y79903D01*
X143001D01*
X143668Y80569D01*
Y77237D02*
X143001Y76570D01*
Y75237D01*
X143668Y74571D01*
X146334D01*
X147000Y75237D01*
Y76570D01*
X146334Y77237D01*
X143668D01*
X133001Y87900D02*
Y86567D01*
Y87234D01*
X137000D01*
Y87900D01*
Y86567D01*
X133001Y82568D02*
Y83901D01*
X133668Y84568D01*
X136334D01*
X137000Y83901D01*
Y82568D01*
X136334Y81902D01*
X133668D01*
X133001Y82568D01*
X137000Y80569D02*
Y79236D01*
Y79903D01*
X133001D01*
X133668Y80569D01*
X137000Y77237D02*
Y75904D01*
Y76570D01*
X133001D01*
X133668Y77237D01*
X123001Y87900D02*
Y86567D01*
Y87234D01*
X127000D01*
Y87900D01*
Y86567D01*
X123001Y82568D02*
Y83901D01*
X123668Y84568D01*
X126333D01*
X127000Y83901D01*
Y82568D01*
X126333Y81902D01*
X123668D01*
X123001Y82568D01*
X127000Y80569D02*
Y79236D01*
Y79903D01*
X123001D01*
X123668Y80569D01*
X127000Y74571D02*
Y77237D01*
X124334Y74571D01*
X123668D01*
X123001Y75237D01*
Y76570D01*
X123668Y77237D01*
X193001Y87900D02*
Y86567D01*
Y87234D01*
X197000D01*
Y87900D01*
Y86567D01*
X193001Y82568D02*
Y83901D01*
X193668Y84568D01*
X196334D01*
X197000Y83901D01*
Y82568D01*
X196334Y81902D01*
X193668D01*
X193001Y82568D01*
Y77903D02*
Y80569D01*
X195001D01*
X194334Y79236D01*
Y78570D01*
X195001Y77903D01*
X196334D01*
X197000Y78570D01*
Y79903D01*
X196334Y80569D01*
X183001Y87900D02*
Y86567D01*
Y87234D01*
X187000D01*
Y87900D01*
Y86567D01*
X183001Y82568D02*
Y83901D01*
X183668Y84568D01*
X186334D01*
X187000Y83901D01*
Y82568D01*
X186334Y81902D01*
X183668D01*
X183001Y82568D01*
Y77903D02*
X183668Y79236D01*
X185001Y80569D01*
X186334D01*
X187000Y79903D01*
Y78570D01*
X186334Y77903D01*
X185667D01*
X185001Y78570D01*
Y80569D01*
X173001Y87900D02*
Y86567D01*
Y87234D01*
X177000D01*
Y87900D01*
Y86567D01*
X173001Y82568D02*
Y83901D01*
X173668Y84568D01*
X176333D01*
X177000Y83901D01*
Y82568D01*
X176333Y81902D01*
X173668D01*
X173001Y82568D01*
Y80569D02*
Y77903D01*
X173668D01*
X176333Y80569D01*
X177000D01*
X263668Y85234D02*
X263001Y85901D01*
Y87234D01*
X263668Y87900D01*
X266334D01*
X267000Y87234D01*
Y85901D01*
X266334Y85234D01*
X265001D01*
Y86567D01*
X267000Y83901D02*
X263001D01*
X267000Y81235D01*
X263001D01*
Y79903D02*
X267000D01*
Y77903D01*
X266334Y77237D01*
X263668D01*
X263001Y77903D01*
Y79903D01*
X262700Y-3400D02*
Y-2067D01*
Y-2733D01*
X266699D01*
X266032Y-3400D01*
X262600Y102100D02*
Y103433D01*
Y102767D01*
X266599D01*
X265932Y102100D01*
D61*
X234135Y71198D02*
X238800D01*
Y67699D01*
X236467D01*
X238800D01*
Y64200D01*
X227137Y71198D02*
X231802D01*
Y64200D01*
X227137D01*
X231802Y67699D02*
X229470D01*
X224804Y71198D02*
Y64200D01*
X221306D01*
X220139Y65366D01*
Y70031D01*
X221306Y71198D01*
X224804D01*
X213142D02*
X217807D01*
Y64200D01*
X213142D01*
X217807Y67699D02*
X215474D01*
X210809Y71198D02*
Y66533D01*
X208476Y64200D01*
X206144Y66533D01*
Y71198D01*
X199146D02*
X203811D01*
Y64200D01*
X199146D01*
X203811Y67699D02*
X201479D01*
X196814Y71198D02*
Y64200D01*
X192148D01*
X179319Y71198D02*
X181652D01*
X182818Y70031D01*
Y65366D01*
X181652Y64200D01*
X179319D01*
X178153Y65366D01*
Y70031D01*
X179319Y71198D01*
X175820Y64200D02*
Y71198D01*
X171155Y64200D01*
Y71198D01*
X168823D02*
Y64200D01*
X164157D01*
X161825Y71198D02*
X159492D01*
X160659D01*
Y64200D01*
X161825D01*
X159492D01*
X155993D02*
Y71198D01*
X151328Y64200D01*
Y71198D01*
X144331D02*
X148996D01*
Y64200D01*
X144331D01*
X148996Y67699D02*
X146663D01*
X130335Y70031D02*
X131501Y71198D01*
X133834D01*
X135000Y70031D01*
Y65366D01*
X133834Y64200D01*
X131501D01*
X130335Y65366D01*
X124504Y71198D02*
X126836D01*
X128002Y70031D01*
Y65366D01*
X126836Y64200D01*
X124504D01*
X123337Y65366D01*
Y70031D01*
X124504Y71198D01*
X121005D02*
Y65366D01*
X119838Y64200D01*
X117506D01*
X116340Y65366D01*
Y71198D01*
X114007Y64200D02*
Y71198D01*
X110508D01*
X109342Y70031D01*
Y67699D01*
X110508Y66533D01*
X114007D01*
X111674D02*
X109342Y64200D01*
X102344Y70031D02*
X103510Y71198D01*
X105843D01*
X107009Y70031D01*
Y68865D01*
X105843Y67699D01*
X103510D01*
X102344Y66533D01*
Y65366D01*
X103510Y64200D01*
X105843D01*
X107009Y65366D01*
X95346Y71198D02*
X100012D01*
Y64200D01*
X95346D01*
X100012Y67699D02*
X97679D01*
X88349Y70031D02*
X89515Y71198D01*
X91847D01*
X93014Y70031D01*
Y68865D01*
X91847Y67699D01*
X89515D01*
X88349Y66533D01*
Y65366D01*
X89515Y64200D01*
X91847D01*
X93014Y65366D01*
D78*
X30000Y0D02*
X270000D01*
X30000D02*
Y10000D01*
X270000D01*
Y0D02*
Y10000D01*
X30000Y90000D02*
X270000D01*
X30000D02*
Y100000D01*
X270000D01*
Y90000D02*
Y100000D01*
M02*
