G04*
G04 #@! TF.GenerationSoftware,Altium Limited,Altium Designer,24.5.1 (21)*
G04*
G04 Layer_Color=8388736*
%FSLAX25Y25*%
%MOIN*%
G70*
G04*
G04 #@! TF.SameCoordinates,768C5CE1-1E73-4EAB-B0B2-AB3AEEDBA731*
G04*
G04*
G04 #@! TF.FilePolarity,Negative*
G04*
G01*
G75*
%ADD19R,0.04528X0.01181*%
%ADD20R,0.04528X0.02362*%
G04:AMPARAMS|DCode=28|XSize=53.43mil|YSize=22.53mil|CornerRadius=11.26mil|HoleSize=0mil|Usage=FLASHONLY|Rotation=0.000|XOffset=0mil|YOffset=0mil|HoleType=Round|Shape=RoundedRectangle|*
%AMROUNDEDRECTD28*
21,1,0.05343,0.00000,0,0,0.0*
21,1,0.03091,0.02253,0,0,0.0*
1,1,0.02253,0.01545,0.00000*
1,1,0.02253,-0.01545,0.00000*
1,1,0.02253,-0.01545,0.00000*
1,1,0.02253,0.01545,0.00000*
%
%ADD28ROUNDEDRECTD28*%
%ADD29R,0.05343X0.02253*%
G04:AMPARAMS|DCode=31|XSize=9.55mil|YSize=33.06mil|CornerRadius=4.77mil|HoleSize=0mil|Usage=FLASHONLY|Rotation=270.000|XOffset=0mil|YOffset=0mil|HoleType=Round|Shape=RoundedRectangle|*
%AMROUNDEDRECTD31*
21,1,0.00955,0.02351,0,0,270.0*
21,1,0.00000,0.03306,0,0,270.0*
1,1,0.00955,-0.01176,0.00000*
1,1,0.00955,-0.01176,0.00000*
1,1,0.00955,0.01176,0.00000*
1,1,0.00955,0.01176,0.00000*
%
%ADD31ROUNDEDRECTD31*%
G04:AMPARAMS|DCode=32|XSize=33.06mil|YSize=9.55mil|CornerRadius=4.77mil|HoleSize=0mil|Usage=FLASHONLY|Rotation=270.000|XOffset=0mil|YOffset=0mil|HoleType=Round|Shape=RoundedRectangle|*
%AMROUNDEDRECTD32*
21,1,0.03306,0.00000,0,0,270.0*
21,1,0.02351,0.00955,0,0,270.0*
1,1,0.00955,0.00000,-0.01176*
1,1,0.00955,0.00000,0.01176*
1,1,0.00955,0.00000,0.01176*
1,1,0.00955,0.00000,-0.01176*
%
%ADD32ROUNDEDRECTD32*%
%ADD33R,0.00955X0.03306*%
%ADD34R,0.06102X0.05118*%
%ADD37R,0.02526X0.02762*%
%ADD38R,0.02762X0.02526*%
G04:AMPARAMS|DCode=39|XSize=27.62mil|YSize=25.26mil|CornerRadius=7.63mil|HoleSize=0mil|Usage=FLASHONLY|Rotation=270.000|XOffset=0mil|YOffset=0mil|HoleType=Round|Shape=RoundedRectangle|*
%AMROUNDEDRECTD39*
21,1,0.02762,0.00999,0,0,270.0*
21,1,0.01235,0.02526,0,0,270.0*
1,1,0.01527,-0.00500,-0.00618*
1,1,0.01527,-0.00500,0.00618*
1,1,0.01527,0.00500,0.00618*
1,1,0.01527,0.00500,-0.00618*
%
%ADD39ROUNDEDRECTD39*%
%ADD40R,0.01778X0.02762*%
%ADD41R,0.02762X0.01778*%
G04:AMPARAMS|DCode=42|XSize=27.62mil|YSize=25.26mil|CornerRadius=7.63mil|HoleSize=0mil|Usage=FLASHONLY|Rotation=180.000|XOffset=0mil|YOffset=0mil|HoleType=Round|Shape=RoundedRectangle|*
%AMROUNDEDRECTD42*
21,1,0.02762,0.00999,0,0,180.0*
21,1,0.01235,0.02526,0,0,180.0*
1,1,0.01527,-0.00618,0.00500*
1,1,0.01527,0.00618,0.00500*
1,1,0.01527,0.00618,-0.00500*
1,1,0.01527,-0.00618,-0.00500*
%
%ADD42ROUNDEDRECTD42*%
%ADD43R,0.03550X0.03550*%
%ADD44R,0.01975X0.03550*%
%ADD45R,0.03550X0.01975*%
%ADD46R,0.05124X0.05124*%
%ADD47R,0.03156X0.02762*%
%ADD48R,0.08071X0.08071*%
G04:AMPARAMS|DCode=49|XSize=39.43mil|YSize=72.9mil|CornerRadius=3.95mil|HoleSize=0mil|Usage=FLASHONLY|Rotation=90.000|XOffset=0mil|YOffset=0mil|HoleType=Round|Shape=RoundedRectangle|*
%AMROUNDEDRECTD49*
21,1,0.03943,0.06500,0,0,90.0*
21,1,0.03154,0.07290,0,0,90.0*
1,1,0.00790,0.03250,0.01577*
1,1,0.00790,0.03250,-0.01577*
1,1,0.00790,-0.03250,-0.01577*
1,1,0.00790,-0.03250,0.01577*
%
%ADD49ROUNDEDRECTD49*%
G04:AMPARAMS|DCode=50|XSize=129.98mil|YSize=72.9mil|CornerRadius=4.07mil|HoleSize=0mil|Usage=FLASHONLY|Rotation=90.000|XOffset=0mil|YOffset=0mil|HoleType=Round|Shape=RoundedRectangle|*
%AMROUNDEDRECTD50*
21,1,0.12998,0.06476,0,0,90.0*
21,1,0.12185,0.07290,0,0,90.0*
1,1,0.00813,0.03238,0.06093*
1,1,0.00813,0.03238,-0.06093*
1,1,0.00813,-0.03238,-0.06093*
1,1,0.00813,-0.03238,0.06093*
%
%ADD50ROUNDEDRECTD50*%
%ADD51R,0.04400X0.04400*%
%ADD52C,0.04400*%
G04:AMPARAMS|DCode=53|XSize=39.37mil|YSize=70.87mil|CornerRadius=19.68mil|HoleSize=0mil|Usage=FLASHONLY|Rotation=270.000|XOffset=0mil|YOffset=0mil|HoleType=Round|Shape=RoundedRectangle|*
%AMROUNDEDRECTD53*
21,1,0.03937,0.03150,0,0,270.0*
21,1,0.00000,0.07087,0,0,270.0*
1,1,0.03937,-0.01575,0.00000*
1,1,0.03937,-0.01575,0.00000*
1,1,0.03937,0.01575,0.00000*
1,1,0.03937,0.01575,0.00000*
%
%ADD53ROUNDEDRECTD53*%
G04:AMPARAMS|DCode=54|XSize=39.37mil|YSize=86.61mil|CornerRadius=19.68mil|HoleSize=0mil|Usage=FLASHONLY|Rotation=270.000|XOffset=0mil|YOffset=0mil|HoleType=Round|Shape=RoundedRectangle|*
%AMROUNDEDRECTD54*
21,1,0.03937,0.04724,0,0,270.0*
21,1,0.00000,0.08661,0,0,270.0*
1,1,0.03937,-0.02362,0.00000*
1,1,0.03937,-0.02362,0.00000*
1,1,0.03937,0.02362,0.00000*
1,1,0.03937,0.02362,0.00000*
%
%ADD54ROUNDEDRECTD54*%
%ADD55R,0.06800X0.06800*%
%ADD56C,0.06800*%
%ADD57R,0.04400X0.04400*%
G36*
X248756Y56693D02*
Y53740D01*
X243244D01*
Y59252D01*
X246197D01*
X248756Y56693D01*
D02*
G37*
G36*
X96633Y39029D02*
X97089D01*
X114213Y39030D01*
X114221Y39022D01*
X114224Y39011D01*
X114226Y38993D01*
X114224Y21584D01*
X114214Y21572D01*
X114203Y21569D01*
X114168Y21572D01*
X96559Y21571D01*
X96548Y21579D01*
X96545Y21590D01*
X96543Y21617D01*
X96545Y39017D01*
X96557Y39032D01*
X96633Y39029D01*
D02*
G37*
G36*
X99498Y18420D02*
X99511Y18408D01*
X99513Y18373D01*
X99512Y17875D01*
X99513Y17844D01*
X99502Y17825D01*
X99488Y17818D01*
X97158Y17820D01*
X97149Y17816D01*
X97145Y17811D01*
X97140Y17790D01*
X97142Y17242D01*
X97149Y17235D01*
X99129Y17232D01*
X99135Y17225D01*
X99138Y17215D01*
X99135Y17163D01*
X99137Y16652D01*
X99131Y16638D01*
X99118Y16633D01*
X99079Y16634D01*
X97179Y16633D01*
X97171Y16635D01*
X97149Y16633D01*
X97145Y16629D01*
X97140Y16607D01*
X97142Y16056D01*
X97152Y16047D01*
X97167Y16045D01*
X99493Y16047D01*
X99511Y16035D01*
X99513Y16024D01*
X99512Y15990D01*
X99513Y15503D01*
X99511Y15494D01*
X99513Y15475D01*
X99511Y15457D01*
X99504Y15450D01*
X99493Y15447D01*
X99474Y15444D01*
X99439Y15447D01*
X96556Y15446D01*
X96547Y15450D01*
X96540Y15457D01*
X96537Y15467D01*
X96540Y15511D01*
Y16116D01*
Y16118D01*
X96543Y18414D01*
X96549Y18420D01*
X96560Y18423D01*
X99498Y18420D01*
D02*
G37*
G36*
X106985D02*
X106989Y18417D01*
X106991Y18398D01*
X106989Y17828D01*
X106976Y17816D01*
X106925Y17818D01*
X104635Y17816D01*
X104623Y17803D01*
X104620Y17793D01*
X104619Y17251D01*
X104626Y17242D01*
X104630Y17238D01*
X104648Y17235D01*
X106604Y17232D01*
X106616Y17223D01*
X106619Y17212D01*
X106616Y17185D01*
X106617Y16657D01*
X106612Y16644D01*
X106606Y16638D01*
X106585Y16633D01*
X106548Y16634D01*
X104989Y16633D01*
X104986D01*
X104647Y16634D01*
X104636Y16631D01*
X104627Y16625D01*
X104623Y16621D01*
X104620Y16610D01*
X104623Y16059D01*
X104630Y16052D01*
X104643Y16047D01*
X106972Y16048D01*
X106983Y16045D01*
X106989Y16040D01*
X106991Y16029D01*
X106994Y16016D01*
X106991Y16007D01*
X106993Y15463D01*
X106990Y15452D01*
X106985Y15447D01*
X106966Y15444D01*
X106930Y15447D01*
X104056Y15446D01*
X104026Y15449D01*
X104017Y15455D01*
X104013Y15470D01*
X104015Y15489D01*
X104018Y18411D01*
X104022Y18418D01*
X104041Y18423D01*
X106985Y18420D01*
D02*
G37*
G36*
X95761D02*
X95765Y18417D01*
X95770Y18403D01*
X95768Y17830D01*
X95755Y17818D01*
X95736Y17816D01*
X95728Y17818D01*
X93414Y17816D01*
X93407Y17809D01*
X93402Y17790D01*
X93405Y17242D01*
X93409Y17235D01*
X93422Y17230D01*
X95388Y17227D01*
X95395Y17220D01*
X95398Y17209D01*
X95399Y16654D01*
X95396Y16641D01*
X95389Y16631D01*
X95377Y16627D01*
X95367Y16625D01*
X94867D01*
X93421Y16626D01*
X93411Y16619D01*
X93407Y16615D01*
X93402Y16602D01*
X93403Y15461D01*
X93396Y15451D01*
X93384Y15447D01*
X93345Y15446D01*
X92849Y15447D01*
X92841Y15444D01*
X92812Y15447D01*
X92797Y15459D01*
X92794Y15470D01*
X92797Y15481D01*
X92800Y18408D01*
X92806Y18418D01*
X92825Y18423D01*
X95761Y18420D01*
D02*
G37*
G36*
X114157D02*
X114167Y18411D01*
X114170Y18384D01*
X114167Y17833D01*
X114160Y17824D01*
X114147Y17818D01*
X113334D01*
X111808Y17816D01*
X111798Y17809D01*
X111793Y17795D01*
X111792Y17251D01*
X111797Y17240D01*
X111811Y17235D01*
X113787Y17232D01*
X113800Y17220D01*
X113797Y17161D01*
X113798Y16654D01*
X113794Y16645D01*
X113787Y16638D01*
X113766Y16633D01*
X113729Y16634D01*
X111851Y16633D01*
X111843Y16635D01*
X111824Y16633D01*
X111802Y16630D01*
X111796Y16623D01*
X111793Y16604D01*
X111796Y16059D01*
X111800Y16052D01*
X111819Y16047D01*
X114157Y16044D01*
X114167Y16037D01*
X114170Y16026D01*
X114167Y15454D01*
X114163Y15450D01*
X114152Y15447D01*
X114110Y15446D01*
X111257Y15447D01*
X111249Y15444D01*
X111222Y15447D01*
X111203Y15450D01*
X111196Y15457D01*
X111195Y15471D01*
X111197Y18404D01*
X111202Y18414D01*
X111208Y18420D01*
X111227Y18423D01*
X114157Y18420D01*
D02*
G37*
G36*
X110666D02*
X110670Y18417D01*
X110672Y18403D01*
X110670Y18395D01*
X110663Y18377D01*
X110651Y18349D01*
X110644Y18318D01*
X110638Y18304D01*
X110626Y18276D01*
X110624Y18265D01*
X110617Y18237D01*
X110611Y18223D01*
X110599Y18195D01*
X110594Y18173D01*
X110584Y18148D01*
X110572Y18119D01*
X110566Y18088D01*
X110555Y18061D01*
X110548Y18046D01*
X110543Y18025D01*
X110540Y18009D01*
X110526Y17979D01*
X110521Y17966D01*
X110517Y17948D01*
X110514Y17934D01*
X110503Y17907D01*
X110497Y17892D01*
X110491Y17874D01*
X110489Y17863D01*
X110482Y17845D01*
X110472Y17828D01*
X110467Y17809D01*
X110464Y17790D01*
X110462Y17779D01*
X110443Y17739D01*
X110440Y17720D01*
X110435Y17698D01*
X110424Y17679D01*
X110418Y17666D01*
X110416Y17655D01*
X110413Y17636D01*
X110410Y17625D01*
X110397Y17601D01*
X110391Y17587D01*
X110389Y17577D01*
X110382Y17548D01*
X110370Y17528D01*
X110364Y17509D01*
X110360Y17486D01*
X110358Y17475D01*
X110343Y17447D01*
X110337Y17425D01*
X110333Y17402D01*
X110328Y17389D01*
X110316Y17369D01*
X110313Y17350D01*
X110310Y17339D01*
X110306Y17321D01*
X110297Y17307D01*
X110286Y17282D01*
X110283Y17261D01*
X110278Y17247D01*
X110267Y17223D01*
X110259Y17196D01*
X110256Y17180D01*
X110251Y17166D01*
X110240Y17142D01*
X110235Y17123D01*
X110231Y17105D01*
X110220Y17076D01*
X110216Y17072D01*
X110208Y17042D01*
X110204Y17022D01*
X110196Y17005D01*
X110183Y16977D01*
X110181Y16966D01*
X110175Y16942D01*
X110162Y16912D01*
X110156Y16893D01*
X110154Y16883D01*
X110150Y16868D01*
X110143Y16850D01*
X110135Y16831D01*
X110129Y16812D01*
X110125Y16795D01*
X110117Y16773D01*
X110110Y16758D01*
X110102Y16731D01*
X110100Y16715D01*
X110086Y16693D01*
X110081Y16680D01*
X110075Y16648D01*
X110069Y16630D01*
X110056Y16607D01*
X110054Y16596D01*
X110044Y16554D01*
X110029Y16526D01*
X110027Y16515D01*
X110024Y16496D01*
X110021Y16486D01*
X110003Y16445D01*
X109999Y16428D01*
X109996Y16417D01*
X109990Y16403D01*
X109978Y16383D01*
X109974Y16360D01*
X109971Y16344D01*
X109963Y16322D01*
X109959Y16318D01*
X109951Y16299D01*
X109949Y16280D01*
X109946Y16270D01*
X109942Y16255D01*
X109927Y16226D01*
X109924Y16216D01*
X109920Y16193D01*
X109917Y16179D01*
X109903Y16151D01*
X109897Y16132D01*
X109893Y16117D01*
X109882Y16090D01*
X109876Y16075D01*
X109870Y16053D01*
X109868Y16037D01*
X109861Y16025D01*
X109859Y16024D01*
X109857Y16018D01*
X109843Y15989D01*
X109836Y15971D01*
X109830Y15964D01*
X109827Y15959D01*
X109819Y15940D01*
X109815Y15923D01*
X109811Y15913D01*
X109799Y15898D01*
X109792Y15881D01*
X109788Y15866D01*
X109781Y15856D01*
X109776Y15851D01*
X109773Y15845D01*
X109757Y15816D01*
X109743Y15802D01*
X109737Y15785D01*
X109727Y15770D01*
X109719Y15762D01*
X109703Y15732D01*
X109692Y15721D01*
X109678Y15697D01*
X109665Y15683D01*
X109654Y15664D01*
X109641Y15651D01*
X109638Y15646D01*
X109626Y15631D01*
X109611Y15619D01*
X109599Y15604D01*
X109593Y15601D01*
X109572Y15579D01*
X109553Y15569D01*
X109545Y15561D01*
X109539Y15558D01*
X109531Y15550D01*
X109507Y15536D01*
X109499Y15528D01*
X109473Y15519D01*
X109464Y15512D01*
X109458Y15507D01*
X109439Y15498D01*
X109425Y15494D01*
X109411Y15489D01*
X109388Y15477D01*
X109377Y15474D01*
X109358Y15471D01*
X109330Y15465D01*
X109291Y15452D01*
X109249Y15449D01*
X108998Y15446D01*
X108978Y15444D01*
X108969Y15447D01*
X108907Y15452D01*
X108899Y15455D01*
X108861Y15466D01*
X108851Y15469D01*
X108809Y15478D01*
X108775Y15496D01*
X108755Y15500D01*
X108745Y15504D01*
X108730Y15516D01*
X108716Y15523D01*
X108698Y15529D01*
X108686Y15542D01*
X108680Y15544D01*
X108656Y15558D01*
X108643Y15571D01*
X108629Y15579D01*
X108613Y15596D01*
X108608Y15598D01*
X108569Y15638D01*
X108566Y15643D01*
X108547Y15662D01*
X108539Y15675D01*
X108525Y15689D01*
X108514Y15708D01*
X108502Y15723D01*
X108490Y15746D01*
X108477Y15759D01*
X108474Y15765D01*
X108460Y15789D01*
X108452Y15797D01*
X108450Y15802D01*
X108436Y15827D01*
X108428Y15835D01*
X108425Y15840D01*
X108396Y15902D01*
X108386Y15928D01*
X108379Y15937D01*
X108374Y15943D01*
X108369Y15956D01*
X108356Y15990D01*
X108352Y15994D01*
X108342Y16018D01*
X108336Y16037D01*
X108317Y16078D01*
X108315Y16089D01*
X108308Y16117D01*
X108293Y16145D01*
X108290Y16156D01*
X108286Y16179D01*
X108284Y16190D01*
X108280Y16199D01*
X108266Y16229D01*
X108263Y16240D01*
X108259Y16263D01*
X108254Y16276D01*
X108242Y16296D01*
X108232Y16338D01*
X108227Y16352D01*
X108215Y16372D01*
X108211Y16395D01*
X108208Y16406D01*
X108200Y16428D01*
X108193Y16442D01*
X108188Y16461D01*
X108185Y16472D01*
X108181Y16487D01*
X108173Y16509D01*
X108166Y16523D01*
X108161Y16542D01*
X108157Y16560D01*
X108154Y16571D01*
X108144Y16591D01*
X108139Y16604D01*
X108134Y16623D01*
X108130Y16641D01*
X108115Y16672D01*
X108107Y16699D01*
X108100Y16727D01*
X108085Y16761D01*
X108080Y16783D01*
X108076Y16797D01*
X108069Y16815D01*
X108061Y16834D01*
X108055Y16853D01*
X108051Y16870D01*
X108043Y16892D01*
X108036Y16907D01*
X108028Y16934D01*
X108026Y16945D01*
X108019Y16962D01*
X108007Y16982D01*
X108003Y17005D01*
X108000Y17019D01*
X107997Y17030D01*
X107982Y17058D01*
X107977Y17080D01*
X107973Y17103D01*
X107968Y17116D01*
X107955Y17136D01*
X107950Y17169D01*
X107947Y17180D01*
X107941Y17197D01*
X107934Y17204D01*
X107928Y17217D01*
X107926Y17228D01*
X107919Y17257D01*
X107907Y17279D01*
X107901Y17298D01*
X107899Y17317D01*
X107896Y17328D01*
X107877Y17369D01*
X107868Y17411D01*
X107864Y17420D01*
X107855Y17433D01*
X107850Y17447D01*
X107846Y17473D01*
X107843Y17483D01*
X107839Y17493D01*
X107828Y17509D01*
X107823Y17528D01*
X107819Y17548D01*
X107811Y17570D01*
X107799Y17598D01*
X107792Y17629D01*
X107787Y17643D01*
X107780Y17658D01*
X107774Y17671D01*
X107772Y17682D01*
X107765Y17710D01*
X107760Y17724D01*
X107747Y17752D01*
X107741Y17783D01*
X107735Y17797D01*
X107723Y17817D01*
X107719Y17832D01*
X107716Y17848D01*
X107714Y17859D01*
X107708Y17872D01*
X107696Y17901D01*
X107691Y17922D01*
X107687Y17940D01*
X107681Y17953D01*
X107669Y17982D01*
X107667Y17992D01*
X107660Y18021D01*
X107652Y18037D01*
X107646Y18050D01*
X107642Y18065D01*
X107640Y18076D01*
X107635Y18091D01*
X107618Y18125D01*
X107613Y18157D01*
X107603Y18183D01*
X107599Y18187D01*
X107591Y18206D01*
X107587Y18229D01*
X107584Y18242D01*
X107579Y18256D01*
X107569Y18273D01*
X107564Y18292D01*
X107561Y18311D01*
X107552Y18337D01*
X107542Y18354D01*
X107537Y18373D01*
X107534Y18384D01*
X107530Y18399D01*
X107529Y18414D01*
X107536Y18420D01*
X107554Y18423D01*
X108127Y18420D01*
X108134Y18414D01*
X108136Y18408D01*
X108150Y18387D01*
X108155Y18368D01*
X108158Y18357D01*
X108170Y18323D01*
X108182Y18295D01*
X108186Y18277D01*
X108194Y18256D01*
X108207Y18227D01*
X108212Y18209D01*
X108216Y18191D01*
X108231Y18163D01*
X108239Y18130D01*
X108246Y18113D01*
X108250Y18109D01*
X108258Y18090D01*
X108265Y18061D01*
X108271Y18044D01*
X108274Y18038D01*
X108285Y18014D01*
X108289Y17997D01*
X108292Y17986D01*
X108297Y17972D01*
X108309Y17944D01*
X108317Y17917D01*
X108321Y17902D01*
X108336Y17874D01*
X108340Y17856D01*
X108343Y17845D01*
X108350Y17828D01*
X108363Y17798D01*
X108370Y17767D01*
X108375Y17753D01*
X108379Y17749D01*
X108382Y17744D01*
X108387Y17730D01*
X108390Y17720D01*
X108394Y17702D01*
X108400Y17689D01*
X108414Y17655D01*
X108417Y17644D01*
X108421Y17627D01*
X108427Y17613D01*
X108431Y17609D01*
X108442Y17585D01*
X108446Y17559D01*
X108451Y17546D01*
X108463Y17528D01*
X108467Y17510D01*
X108470Y17497D01*
X108473Y17486D01*
X108478Y17473D01*
X108490Y17450D01*
X108493Y17439D01*
X108497Y17421D01*
X108505Y17400D01*
X108517Y17371D01*
X108523Y17352D01*
X108527Y17335D01*
X108537Y17319D01*
X108544Y17301D01*
X108552Y17263D01*
X108566Y17244D01*
X108571Y17225D01*
X108575Y17205D01*
X108583Y17184D01*
X108593Y17166D01*
X108598Y17147D01*
X108602Y17130D01*
X108620Y17090D01*
X108625Y17072D01*
X108629Y17054D01*
X108633Y17045D01*
X108647Y17023D01*
X108650Y17004D01*
X108652Y16993D01*
X108656Y16978D01*
X108666Y16966D01*
X108671Y16953D01*
X108677Y16931D01*
X108680Y16914D01*
X108686Y16900D01*
X108698Y16880D01*
X108705Y16849D01*
X108710Y16835D01*
X108722Y16807D01*
X108728Y16788D01*
X108730Y16777D01*
X108737Y16760D01*
X108749Y16739D01*
X108752Y16729D01*
X108755Y16710D01*
X108757Y16699D01*
X108768Y16680D01*
X108779Y16656D01*
X108782Y16634D01*
X108787Y16621D01*
X108803Y16586D01*
X108806Y16575D01*
X108809Y16558D01*
X108828Y16518D01*
X108833Y16499D01*
X108837Y16479D01*
X108851Y16457D01*
X108857Y16434D01*
X108864Y16406D01*
X108882Y16372D01*
X108884Y16353D01*
X108887Y16342D01*
X108893Y16329D01*
X108903Y16313D01*
X108909Y16294D01*
X108913Y16274D01*
X108918Y16260D01*
X108930Y16237D01*
X108936Y16218D01*
X108942Y16190D01*
X108952Y16175D01*
X108957Y16170D01*
X108963Y16156D01*
X108974Y16137D01*
X108984Y16126D01*
X108987Y16121D01*
X109002Y16101D01*
X109007Y16098D01*
X109019Y16086D01*
X109022Y16080D01*
X109029Y16074D01*
X109048Y16066D01*
X109065Y16059D01*
X109080Y16052D01*
X109091Y16049D01*
X109121Y16052D01*
X109156Y16068D01*
X109161Y16071D01*
X109168Y16075D01*
X109171Y16080D01*
X109186Y16095D01*
X109191Y16098D01*
X109195Y16102D01*
X109198Y16107D01*
X109222Y16132D01*
X109225Y16142D01*
X109230Y16148D01*
X109233Y16153D01*
X109244Y16164D01*
X109249Y16183D01*
X109253Y16198D01*
X109271Y16232D01*
X109275Y16255D01*
X109277Y16265D01*
X109281Y16275D01*
X109292Y16291D01*
X109298Y16310D01*
X109302Y16330D01*
X109307Y16344D01*
X109319Y16367D01*
X109325Y16386D01*
X109331Y16414D01*
X109341Y16429D01*
X109349Y16448D01*
X109352Y16467D01*
X109354Y16477D01*
X109368Y16502D01*
X109373Y16515D01*
X109376Y16526D01*
X109380Y16549D01*
X109394Y16571D01*
X109400Y16588D01*
X109404Y16611D01*
X109412Y16633D01*
X109425Y16653D01*
X109429Y16670D01*
X109431Y16687D01*
X109434Y16698D01*
X109443Y16712D01*
X109452Y16731D01*
X109454Y16742D01*
X109461Y16770D01*
X109472Y16787D01*
X109479Y16804D01*
X109483Y16827D01*
X109485Y16838D01*
X109495Y16853D01*
X109503Y16872D01*
X109506Y16883D01*
X109510Y16903D01*
X109515Y16916D01*
X109527Y16937D01*
X109531Y16951D01*
X109537Y16978D01*
X109542Y16992D01*
X109549Y16999D01*
X109554Y17012D01*
X109560Y17034D01*
X109562Y17050D01*
X109573Y17069D01*
X109581Y17088D01*
X109584Y17099D01*
X109588Y17121D01*
X109597Y17136D01*
X109608Y17161D01*
X109612Y17184D01*
X109620Y17205D01*
X109624Y17209D01*
X109633Y17228D01*
X109638Y17250D01*
X109641Y17266D01*
X109657Y17293D01*
X109662Y17315D01*
X109668Y17339D01*
X109681Y17360D01*
X109687Y17379D01*
X109693Y17411D01*
X109711Y17444D01*
X109718Y17473D01*
X109726Y17494D01*
X109738Y17523D01*
X109746Y17555D01*
X109757Y17574D01*
X109762Y17587D01*
X109768Y17609D01*
X109770Y17625D01*
X109781Y17644D01*
X109786Y17650D01*
X109791Y17664D01*
X109793Y17681D01*
X109796Y17694D01*
X109813Y17728D01*
X109819Y17749D01*
X109823Y17764D01*
X109828Y17778D01*
X109843Y17811D01*
X109850Y17840D01*
X109865Y17868D01*
X109870Y17890D01*
X109874Y17907D01*
X109880Y17921D01*
X109886Y17930D01*
X109895Y17949D01*
X109898Y17975D01*
X109904Y17988D01*
X109916Y18009D01*
X109922Y18030D01*
X109925Y18045D01*
X109934Y18067D01*
X109946Y18095D01*
X109949Y18106D01*
X109952Y18121D01*
X109958Y18134D01*
X109962Y18138D01*
X109967Y18152D01*
X109973Y18171D01*
X109976Y18181D01*
X109978Y18198D01*
X109997Y18227D01*
X110001Y18253D01*
X110004Y18264D01*
X110009Y18277D01*
X110013Y18281D01*
X110016Y18287D01*
X110021Y18300D01*
X110027Y18322D01*
X110039Y18356D01*
X110051Y18384D01*
X110055Y18402D01*
X110063Y18415D01*
X110077Y18420D01*
X110088Y18423D01*
X110656Y18425D01*
X110666Y18420D01*
D02*
G37*
G36*
X115521D02*
X115531Y18411D01*
X115533Y18400D01*
X115536Y18365D01*
X115533Y18354D01*
X115536Y18311D01*
X115535Y16084D01*
X115536Y16083D01*
X115533Y16080D01*
X115536Y16072D01*
X115539Y16059D01*
X115548Y16049D01*
X115567Y16047D01*
X117888Y16048D01*
X117898Y16044D01*
X117904Y16037D01*
X117907Y16026D01*
X117904Y15454D01*
X117898Y15447D01*
X117887Y15444D01*
X117836Y15447D01*
X115148D01*
X114972Y15446D01*
X114942Y15449D01*
X114931Y15454D01*
X114928Y15465D01*
X114930Y15501D01*
X114928Y18395D01*
X114931Y18403D01*
X114934Y18414D01*
X114938Y18418D01*
X114951Y18423D01*
X115521Y18420D01*
D02*
G37*
G36*
X102726D02*
X102734Y18418D01*
X102757Y18414D01*
X102772Y18410D01*
X102782Y18407D01*
X102820Y18402D01*
X102849Y18395D01*
X102870Y18381D01*
X102885Y18377D01*
X102896Y18375D01*
X102911Y18371D01*
X102920Y18364D01*
X102926Y18358D01*
X102931Y18356D01*
X102944Y18350D01*
X102969Y18337D01*
X102977Y18329D01*
X103007Y18313D01*
X103017Y18302D01*
X103036Y18291D01*
X103066Y18261D01*
X103070Y18260D01*
X103073Y18254D01*
X103127Y18200D01*
X103138Y18181D01*
X103142Y18175D01*
X103146Y18173D01*
X103148Y18168D01*
X103165Y18138D01*
X103175Y18127D01*
X103183Y18101D01*
X103192Y18087D01*
X103205Y18068D01*
X103209Y18050D01*
X103212Y18037D01*
X103227Y18009D01*
X103232Y17987D01*
X103236Y17953D01*
X103239Y17943D01*
X103244Y17929D01*
X103247Y17891D01*
X103254Y17874D01*
X103251Y15986D01*
X103248Y15978D01*
X103244Y15944D01*
X103240Y15929D01*
X103237Y15918D01*
X103235Y15900D01*
X103228Y15860D01*
X103224Y15851D01*
X103208Y15816D01*
X103204Y15801D01*
X103198Y15787D01*
X103189Y15778D01*
X103183Y15765D01*
X103174Y15739D01*
X103162Y15727D01*
X103146Y15697D01*
X103138Y15689D01*
X103135Y15683D01*
X103124Y15667D01*
X103121Y15662D01*
X103100Y15640D01*
X103097Y15635D01*
X103093Y15631D01*
X103088Y15628D01*
X103073Y15613D01*
X103070Y15608D01*
X103066Y15604D01*
X103061Y15601D01*
X103048Y15589D01*
X103046Y15584D01*
X103016Y15565D01*
X103004Y15552D01*
X102986Y15546D01*
X102971Y15531D01*
X102966Y15528D01*
X102936Y15512D01*
X102931Y15507D01*
X102917Y15501D01*
X102907Y15498D01*
X102881Y15489D01*
X102853Y15477D01*
X102834Y15471D01*
X102789Y15462D01*
X102768Y15454D01*
X102753Y15450D01*
X102701Y15447D01*
X102693Y15444D01*
X102642Y15447D01*
X102431D01*
X100291Y15446D01*
X100282Y15450D01*
X100275Y15467D01*
X100278Y15494D01*
X100280Y18414D01*
X100284Y18420D01*
X100295Y18423D01*
X102726Y18420D01*
D02*
G37*
%LPC*%
G36*
X113158Y38003D02*
X113150Y38000D01*
X101000D01*
X97599Y38001D01*
X97588Y37999D01*
X97580Y37990D01*
X97577Y37972D01*
X97580Y37964D01*
X97582Y22619D01*
X97592Y22609D01*
X97603Y22606D01*
X97638Y22609D01*
X113173Y22608D01*
X113182Y22615D01*
X113187Y22619D01*
X113189Y22637D01*
X113191Y37984D01*
X113187Y37993D01*
X113180Y38000D01*
X113158Y38003D01*
D02*
G37*
%LPD*%
G36*
X99852Y35888D02*
X106147D01*
X110941Y35885D01*
X110950Y35876D01*
X110956Y35854D01*
X110953Y35811D01*
X110954Y33657D01*
X110944Y33647D01*
X110892Y33644D01*
X99851Y33645D01*
X99825Y33644D01*
X99813Y33651D01*
X99810Y33661D01*
X99813Y35876D01*
X99822Y35888D01*
X99833Y35891D01*
X99852Y35888D01*
D02*
G37*
G36*
X108721Y31419D02*
X108730Y31412D01*
X108733Y31401D01*
X108735Y31389D01*
X108733Y29219D01*
X108736Y29211D01*
X108732Y29196D01*
X108724Y29188D01*
X108713Y29185D01*
X107560D01*
X102082Y29186D01*
X102072Y29182D01*
X102068Y29178D01*
X102065Y29168D01*
X102063Y24739D01*
X102056Y24732D01*
X102037Y24729D01*
X102026Y24732D01*
X99825Y24735D01*
X99818Y24741D01*
X99816Y24752D01*
X99813Y29186D01*
X99810Y29195D01*
X99813Y31412D01*
X99820Y31419D01*
X99831Y31421D01*
X99864Y31420D01*
X108675Y31421D01*
X108683Y31419D01*
X108691Y31421D01*
X108721Y31419D01*
D02*
G37*
G36*
X110938Y26968D02*
X110950Y26959D01*
X110953Y26948D01*
X110956Y26929D01*
X110953Y26902D01*
X110954Y24740D01*
X110949Y24732D01*
X110930Y24726D01*
X104249Y24729D01*
X104239Y24739D01*
X104237Y24755D01*
X104239Y24763D01*
X104242Y26956D01*
X104252Y26968D01*
X104262Y26971D01*
X104296Y26969D01*
X109213Y26971D01*
X109215D01*
X110938Y26968D01*
D02*
G37*
%LPC*%
G36*
X102531Y17818D02*
X100892Y17816D01*
X100880Y17803D01*
X100877Y17785D01*
X100880Y16059D01*
X100889Y16049D01*
X100908Y16047D01*
X101546D01*
X102553Y16049D01*
X102575Y16063D01*
X102592Y16070D01*
X102602Y16076D01*
X102611Y16086D01*
X102614Y16091D01*
X102623Y16101D01*
X102627Y16102D01*
X102630Y16107D01*
X102638Y16126D01*
X102642Y16144D01*
X102646Y16159D01*
X102649Y16170D01*
X102646Y17720D01*
X102641Y17733D01*
X102634Y17751D01*
X102624Y17766D01*
X102603Y17787D01*
X102600Y17793D01*
X102596Y17797D01*
X102591Y17799D01*
X102572Y17808D01*
X102542Y17816D01*
X102531Y17818D01*
D02*
G37*
%LPD*%
D19*
X24764Y84882D02*
D03*
Y82913D02*
D03*
Y80945D02*
D03*
Y78976D02*
D03*
Y77008D02*
D03*
Y75039D02*
D03*
Y73071D02*
D03*
Y71102D02*
D03*
Y15118D02*
D03*
Y17087D02*
D03*
Y19055D02*
D03*
Y21024D02*
D03*
Y22992D02*
D03*
Y24961D02*
D03*
Y26929D02*
D03*
Y28898D02*
D03*
D20*
Y68543D02*
D03*
Y87441D02*
D03*
Y90591D02*
D03*
Y65394D02*
D03*
Y9409D02*
D03*
Y34606D02*
D03*
Y31457D02*
D03*
Y12559D02*
D03*
D28*
X115742Y67000D02*
D03*
X108258Y63260D02*
D03*
X115742Y81000D02*
D03*
X108258Y77260D02*
D03*
D29*
Y70740D02*
D03*
Y84740D02*
D03*
D31*
X78541Y80937D02*
D03*
Y78969D02*
D03*
Y77000D02*
D03*
Y75032D02*
D03*
Y73063D02*
D03*
X63459D02*
D03*
Y75032D02*
D03*
Y77000D02*
D03*
Y78969D02*
D03*
Y80937D02*
D03*
D32*
X74937Y69459D02*
D03*
X72969D02*
D03*
X71000D02*
D03*
X69032D02*
D03*
X67063D02*
D03*
Y84541D02*
D03*
X69032D02*
D03*
X71000D02*
D03*
X72969D02*
D03*
D33*
X74937D02*
D03*
D34*
X124350Y83858D02*
D03*
X155650D02*
D03*
X124350Y66142D02*
D03*
X155650D02*
D03*
X124350Y33858D02*
D03*
X155650D02*
D03*
X124350Y16142D02*
D03*
X155650D02*
D03*
D37*
X191898Y51800D02*
D03*
X195299D02*
D03*
X198701D02*
D03*
X195299D02*
D03*
Y44800D02*
D03*
X191898D02*
D03*
X198701D02*
D03*
X195299D02*
D03*
X72299Y51000D02*
D03*
X68898D02*
D03*
X72299D02*
D03*
X75701D02*
D03*
X51299Y78500D02*
D03*
X54701D02*
D03*
X51299Y73500D02*
D03*
X54701D02*
D03*
X198701Y84000D02*
D03*
X195299D02*
D03*
X211799Y14500D02*
D03*
X215201D02*
D03*
X201799D02*
D03*
X205201D02*
D03*
X90701Y66000D02*
D03*
X87299D02*
D03*
X90701Y56000D02*
D03*
X87299D02*
D03*
X89299Y85000D02*
D03*
X92701D02*
D03*
X90701Y61000D02*
D03*
X87299D02*
D03*
X198701Y79000D02*
D03*
X195299D02*
D03*
D38*
X179000Y18299D02*
D03*
Y21701D02*
D03*
X101000Y84701D02*
D03*
Y81299D02*
D03*
X165000Y30701D02*
D03*
Y27299D02*
D03*
X101000Y63299D02*
D03*
Y66701D02*
D03*
X41000Y13299D02*
D03*
Y16701D02*
D03*
Y26701D02*
D03*
Y23299D02*
D03*
Y84701D02*
D03*
Y81299D02*
D03*
Y71299D02*
D03*
Y74701D02*
D03*
X60000Y60701D02*
D03*
Y57299D02*
D03*
X179000Y78299D02*
D03*
Y81701D02*
D03*
D39*
X75693Y61000D02*
D03*
X72307D02*
D03*
Y56000D02*
D03*
X75693D02*
D03*
X51307Y85000D02*
D03*
X54693D02*
D03*
X42307Y63000D02*
D03*
X45693D02*
D03*
X262307Y14500D02*
D03*
X265693D02*
D03*
X262307Y85500D02*
D03*
X265693D02*
D03*
X92693Y80000D02*
D03*
X89307D02*
D03*
X51307Y68000D02*
D03*
X54693D02*
D03*
X45693Y37000D02*
D03*
X42307D02*
D03*
X245307Y85500D02*
D03*
X248693D02*
D03*
X253807D02*
D03*
X257193D02*
D03*
D40*
X35280Y63000D02*
D03*
X32721D02*
D03*
Y37000D02*
D03*
X35280D02*
D03*
D41*
X33500Y81000D02*
D03*
Y83559D02*
D03*
Y75000D02*
D03*
Y72441D02*
D03*
Y24559D02*
D03*
Y22000D02*
D03*
Y15441D02*
D03*
Y18000D02*
D03*
D42*
X65000Y60693D02*
D03*
Y57307D02*
D03*
X58000Y37693D02*
D03*
Y34307D02*
D03*
Y23693D02*
D03*
Y20307D02*
D03*
X53000D02*
D03*
Y23693D02*
D03*
X165000Y18307D02*
D03*
Y21693D02*
D03*
Y68693D02*
D03*
Y65307D02*
D03*
D43*
X267063Y77559D02*
D03*
X211945D02*
D03*
X267063Y22441D02*
D03*
X211945D02*
D03*
D44*
X262929Y77559D02*
D03*
X259583D02*
D03*
X256236D02*
D03*
X252890D02*
D03*
X249543D02*
D03*
X246197D02*
D03*
X242850D02*
D03*
X239504D02*
D03*
X236157D02*
D03*
X232811D02*
D03*
X229465D02*
D03*
X226118D02*
D03*
X222772D02*
D03*
X219425D02*
D03*
X216079D02*
D03*
Y22441D02*
D03*
X219425D02*
D03*
X222772D02*
D03*
X226118D02*
D03*
X229465D02*
D03*
X232811D02*
D03*
X236157D02*
D03*
X239504D02*
D03*
X242850D02*
D03*
X246197D02*
D03*
X249543D02*
D03*
X252890D02*
D03*
X256236D02*
D03*
X259583D02*
D03*
X262929D02*
D03*
D45*
X211945Y73425D02*
D03*
Y70079D02*
D03*
Y66732D02*
D03*
Y63386D02*
D03*
Y60039D02*
D03*
Y56693D02*
D03*
Y53347D02*
D03*
Y50000D02*
D03*
Y46654D02*
D03*
Y43307D02*
D03*
Y39961D02*
D03*
Y36614D02*
D03*
Y33268D02*
D03*
Y29921D02*
D03*
Y26575D02*
D03*
X267063D02*
D03*
Y29921D02*
D03*
Y33268D02*
D03*
Y36614D02*
D03*
Y39961D02*
D03*
Y43307D02*
D03*
Y46654D02*
D03*
Y50000D02*
D03*
Y53347D02*
D03*
Y56693D02*
D03*
Y60039D02*
D03*
Y63386D02*
D03*
Y66732D02*
D03*
Y70079D02*
D03*
Y73425D02*
D03*
D46*
X239504Y50000D02*
D03*
X246000D02*
D03*
Y43504D02*
D03*
X239504D02*
D03*
X233008D02*
D03*
Y50000D02*
D03*
Y56496D02*
D03*
X239504D02*
D03*
D47*
X173000Y78130D02*
D03*
Y81870D02*
D03*
Y18130D02*
D03*
Y21870D02*
D03*
D48*
X71000Y77000D02*
D03*
D49*
X65697Y38055D02*
D03*
Y29000D02*
D03*
Y19945D02*
D03*
D50*
X90303Y29000D02*
D03*
D51*
X137500Y50000D02*
D03*
D52*
X142500D02*
D03*
X37500Y45000D02*
D03*
Y50000D02*
D03*
D53*
X22500Y60984D02*
D03*
Y95000D02*
D03*
Y39016D02*
D03*
Y5000D02*
D03*
D54*
X6752Y60984D02*
D03*
Y95000D02*
D03*
Y39016D02*
D03*
Y5000D02*
D03*
D55*
X265000D02*
D03*
Y95000D02*
D03*
D56*
X255000Y5000D02*
D03*
X245000D02*
D03*
X235000D02*
D03*
X225000D02*
D03*
X215000D02*
D03*
X205000D02*
D03*
X195000D02*
D03*
X185000D02*
D03*
X175000D02*
D03*
X165000D02*
D03*
X155000D02*
D03*
X145000D02*
D03*
X135000D02*
D03*
X125000D02*
D03*
X115000D02*
D03*
X105000D02*
D03*
X95000D02*
D03*
X85000D02*
D03*
X75000D02*
D03*
X65000D02*
D03*
X55000D02*
D03*
X45000D02*
D03*
X35000D02*
D03*
X255000Y95000D02*
D03*
X245000D02*
D03*
X235000D02*
D03*
X225000D02*
D03*
X215000D02*
D03*
X205000D02*
D03*
X195000D02*
D03*
X185000D02*
D03*
X175000D02*
D03*
X165000D02*
D03*
X155000D02*
D03*
X145000D02*
D03*
X135000D02*
D03*
X125000D02*
D03*
X115000D02*
D03*
X105000D02*
D03*
X95000D02*
D03*
X85000D02*
D03*
X75000D02*
D03*
X65000D02*
D03*
X55000D02*
D03*
X45000D02*
D03*
X35000D02*
D03*
D57*
X37500Y55000D02*
D03*
M02*
