G04*
G04 #@! TF.GenerationSoftware,Altium Limited,Altium Designer,24.5.1 (21)*
G04*
G04 Layer_Physical_Order=2*
G04 Layer_Color=36540*
%FSLAX25Y25*%
%MOIN*%
G70*
G04*
G04 #@! TF.SameCoordinates,768C5CE1-1E73-4EAB-B0B2-AB3AEEDBA731*
G04*
G04*
G04 #@! TF.FilePolarity,Positive*
G04*
G01*
G75*
G04:AMPARAMS|DCode=53|XSize=39.37mil|YSize=70.87mil|CornerRadius=19.68mil|HoleSize=0mil|Usage=FLASHONLY|Rotation=270.000|XOffset=0mil|YOffset=0mil|HoleType=Round|Shape=RoundedRectangle|*
%AMROUNDEDRECTD53*
21,1,0.03937,0.03150,0,0,270.0*
21,1,0.00000,0.07087,0,0,270.0*
1,1,0.03937,-0.01575,0.00000*
1,1,0.03937,-0.01575,0.00000*
1,1,0.03937,0.01575,0.00000*
1,1,0.03937,0.01575,0.00000*
%
%ADD53ROUNDEDRECTD53*%
G04:AMPARAMS|DCode=54|XSize=39.37mil|YSize=86.61mil|CornerRadius=19.68mil|HoleSize=0mil|Usage=FLASHONLY|Rotation=270.000|XOffset=0mil|YOffset=0mil|HoleType=Round|Shape=RoundedRectangle|*
%AMROUNDEDRECTD54*
21,1,0.03937,0.04724,0,0,270.0*
21,1,0.00000,0.08661,0,0,270.0*
1,1,0.03937,-0.02362,0.00000*
1,1,0.03937,-0.02362,0.00000*
1,1,0.03937,0.02362,0.00000*
1,1,0.03937,0.02362,0.00000*
%
%ADD54ROUNDEDRECTD54*%
%ADD59C,0.01500*%
%ADD60C,0.02000*%
%ADD64R,0.04000X0.04000*%
%ADD65C,0.04000*%
%ADD66R,0.06400X0.06400*%
%ADD67C,0.06400*%
%ADD68R,0.04000X0.04000*%
%ADD69C,0.02400*%
%ADD70C,0.04000*%
%ADD71C,0.06000*%
G36*
X268000Y91820D02*
X261820D01*
Y98000D01*
X268000D01*
Y91820D01*
D02*
G37*
G36*
X71594Y97500D02*
X71086Y96621D01*
X70800Y95553D01*
Y94447D01*
X71086Y93379D01*
X71639Y92421D01*
X72421Y91639D01*
X73308Y91127D01*
X73406Y90853D01*
X73441Y90552D01*
X73135Y90246D01*
X72800Y89438D01*
Y88562D01*
X73135Y87754D01*
X73754Y87135D01*
X74562Y86800D01*
X75438D01*
X76246Y87135D01*
X76360Y87249D01*
X76737Y86919D01*
X76380Y86453D01*
X76077Y85723D01*
X75974Y84940D01*
Y64940D01*
X76077Y64157D01*
X76380Y63427D01*
X76860Y62800D01*
X80174Y59486D01*
Y53514D01*
X78639Y51978D01*
X78217Y51923D01*
X77487Y51621D01*
X76860Y51140D01*
X76380Y50513D01*
X76077Y49783D01*
X75974Y49000D01*
X76077Y48217D01*
X76380Y47487D01*
X76860Y46860D01*
X77487Y46380D01*
X78217Y46077D01*
X79000Y45974D01*
X79940D01*
X80723Y46077D01*
X81453Y46380D01*
X82079Y46860D01*
X85340Y50121D01*
X85340Y50121D01*
X85821Y50747D01*
X86123Y51477D01*
X86226Y52260D01*
Y60740D01*
X86226Y60740D01*
X86123Y61523D01*
X85821Y62253D01*
X85340Y62879D01*
X82026Y66193D01*
Y82156D01*
X82526Y82363D01*
X82754Y82135D01*
X83562Y81800D01*
X84438D01*
X85246Y82135D01*
X85865Y82754D01*
X86200Y83562D01*
Y84438D01*
X86067Y84758D01*
X86345Y85174D01*
X90980D01*
Y84000D01*
X91058Y83610D01*
X91279Y83279D01*
X91610Y83058D01*
X92000Y82980D01*
X109578D01*
X118980Y73578D01*
Y62000D01*
X119058Y61610D01*
X119279Y61279D01*
X119610Y61058D01*
X120000Y60980D01*
X133578D01*
X139474Y55084D01*
Y53000D01*
X137697D01*
X137500Y53026D01*
X137303Y53000D01*
X134500D01*
Y51279D01*
X133218Y49997D01*
X132456Y49897D01*
X131483Y49494D01*
X130647Y48853D01*
X130006Y48017D01*
X129603Y47044D01*
X129465Y46000D01*
Y40671D01*
X120129Y31334D01*
X70800D01*
X70800Y31334D01*
X69756Y31197D01*
X68783Y30794D01*
X67947Y30153D01*
X67947Y30153D01*
X63147Y25353D01*
X62506Y24517D01*
X62103Y23544D01*
X62100Y23520D01*
X47700D01*
X47310Y23442D01*
X47148Y23334D01*
X46926Y23235D01*
X46470Y23359D01*
X46133Y23696D01*
X45398Y24000D01*
X44602D01*
X43867Y23696D01*
X43304Y23133D01*
X43000Y22398D01*
Y21602D01*
X43304Y20867D01*
X43867Y20304D01*
X43999Y20250D01*
Y19750D01*
X43867Y19695D01*
X43304Y19133D01*
X43000Y18398D01*
Y17602D01*
X43304Y16867D01*
X43867Y16305D01*
X44602Y16000D01*
X45398D01*
X46133Y16305D01*
X46218Y16390D01*
X46680Y16199D01*
Y14000D01*
X46758Y13610D01*
X46979Y13279D01*
X47310Y13058D01*
X47700Y12980D01*
X56952D01*
X57000Y12974D01*
X59500D01*
X59548Y12980D01*
X69500D01*
X69890Y13058D01*
X70221Y13279D01*
X70442Y13610D01*
X70520Y14000D01*
Y21314D01*
X72471Y23266D01*
X73936D01*
X74036Y22765D01*
X73867Y22695D01*
X73304Y22133D01*
X73000Y21398D01*
Y20602D01*
X73304Y19867D01*
X73867Y19305D01*
X74602Y19000D01*
X75398D01*
X76133Y19305D01*
X76696Y19867D01*
X76750Y19999D01*
X77250D01*
X77305Y19867D01*
X77867Y19305D01*
X78602Y19000D01*
X79398D01*
X80133Y19305D01*
X80695Y19867D01*
X81000Y20602D01*
Y21398D01*
X80695Y22133D01*
X80133Y22695D01*
X79964Y22765D01*
X80063Y23266D01*
X121800D01*
X121800Y23266D01*
X122844Y23403D01*
X123817Y23806D01*
X124653Y24447D01*
X136353Y36147D01*
X136994Y36983D01*
X137397Y37956D01*
X137534Y39000D01*
X137534Y39000D01*
Y45755D01*
X138779Y47000D01*
X140047D01*
X140110Y46958D01*
X140500Y46880D01*
X146000D01*
X146390Y46958D01*
X146721Y47179D01*
X146942Y47510D01*
X147020Y47900D01*
Y51162D01*
X147520Y51369D01*
X147754Y51135D01*
X148562Y50800D01*
X149438D01*
X150246Y51135D01*
X150865Y51754D01*
X151200Y52562D01*
Y53438D01*
X150865Y54246D01*
X150246Y54865D01*
X149438Y55200D01*
X148562D01*
X147754Y54865D01*
X147520Y54631D01*
X147020Y54838D01*
Y61578D01*
X150422Y64980D01*
X178000D01*
X178390Y65058D01*
X178721Y65279D01*
X183417Y69975D01*
X183879Y69784D01*
Y69641D01*
X184214Y68832D01*
X184833Y68214D01*
X185641Y67879D01*
X186516D01*
X187325Y68214D01*
X187944Y68832D01*
X188279Y69641D01*
Y70516D01*
X187944Y71325D01*
X187325Y71944D01*
X186516Y72279D01*
X186374D01*
X186183Y72741D01*
X190422Y76980D01*
X204000D01*
X204390Y77058D01*
X204721Y77279D01*
X206422Y78980D01*
X249578D01*
X250980Y77578D01*
Y75784D01*
X250480Y75475D01*
X249938Y75700D01*
X249062D01*
X248254Y75365D01*
X247635Y74746D01*
X247300Y73938D01*
Y73062D01*
X247635Y72254D01*
X248254Y71635D01*
X249062Y71300D01*
X249938D01*
X250480Y71525D01*
X250980Y71216D01*
Y57432D01*
X251058Y57041D01*
X251188Y56727D01*
Y56257D01*
X251058Y55943D01*
X250980Y55553D01*
Y50936D01*
X251058Y50545D01*
X251188Y50231D01*
Y49761D01*
X251058Y49447D01*
X250980Y49057D01*
Y44440D01*
X251058Y44049D01*
X251188Y43735D01*
Y43265D01*
X251058Y42951D01*
X250980Y42560D01*
Y34829D01*
X250480Y34495D01*
X249985Y34700D01*
X249110D01*
X248301Y34365D01*
X247682Y33746D01*
X247347Y32938D01*
Y32062D01*
X247682Y31254D01*
X248301Y30635D01*
X249110Y30300D01*
X249985D01*
X250480Y30505D01*
X250980Y30171D01*
Y28945D01*
X251000Y28846D01*
Y28746D01*
X251038Y28653D01*
X251058Y28555D01*
X251114Y28471D01*
X251152Y28378D01*
X251223Y28307D01*
X251279Y28224D01*
X251362Y28168D01*
X251433Y28097D01*
X251849Y27819D01*
X251942Y27781D01*
X252026Y27725D01*
X252124Y27705D01*
X252217Y27667D01*
X252317D01*
X252416Y27647D01*
X252514Y27667D01*
X252615D01*
X252647Y27680D01*
X253168D01*
X253602Y27501D01*
X253885Y27217D01*
X254216Y26996D01*
X254606Y26919D01*
X254996Y26996D01*
X255327Y27217D01*
X255611Y27501D01*
X256045Y27680D01*
X256514D01*
X256948Y27501D01*
X257280Y27169D01*
X257460Y26735D01*
Y26265D01*
X257280Y25831D01*
X256948Y25499D01*
X256514Y25320D01*
X256045D01*
X255611Y25499D01*
X255327Y25783D01*
X254996Y26004D01*
X254606Y26081D01*
X254216Y26004D01*
X253885Y25783D01*
X253602Y25499D01*
X253168Y25320D01*
X252647D01*
X252615Y25333D01*
X252514D01*
X252416Y25353D01*
X252317Y25333D01*
X252217D01*
X252124Y25295D01*
X252026Y25275D01*
X251942Y25219D01*
X251849Y25181D01*
X251433Y24903D01*
X251362Y24832D01*
X251279Y24776D01*
X251223Y24693D01*
X251152Y24622D01*
X251114Y24529D01*
X251058Y24445D01*
X251038Y24347D01*
X251000Y24254D01*
Y24154D01*
X250980Y24055D01*
Y22422D01*
X247578Y19020D01*
X238000D01*
X237610Y18942D01*
X237279Y18721D01*
X231279Y12721D01*
X231058Y12390D01*
X230980Y12000D01*
Y8571D01*
X230988Y8533D01*
X230983Y8495D01*
X231027Y8339D01*
X231058Y8181D01*
X231080Y8149D01*
X231090Y8111D01*
X231189Y7984D01*
X231279Y7850D01*
X231316Y7822D01*
X231335Y7798D01*
X231450Y7267D01*
X231423Y7207D01*
X231410Y7181D01*
X231086Y6621D01*
X230800Y5553D01*
Y4447D01*
X231086Y3379D01*
X231594Y2500D01*
X231429Y2000D01*
X228571D01*
X228406Y2500D01*
X228914Y3379D01*
X229200Y4447D01*
Y5553D01*
X228914Y6621D01*
X228361Y7579D01*
X227579Y8361D01*
X226621Y8914D01*
X225553Y9200D01*
X224447D01*
X223379Y8914D01*
X222421Y8361D01*
X221639Y7579D01*
X221086Y6621D01*
X220800Y5553D01*
Y4447D01*
X221086Y3379D01*
X221594Y2500D01*
X221429Y2000D01*
X218571D01*
X218406Y2500D01*
X218914Y3379D01*
X219200Y4447D01*
Y5553D01*
X218914Y6621D01*
X218361Y7579D01*
X217579Y8361D01*
X216621Y8914D01*
X215553Y9200D01*
X214447D01*
X213379Y8914D01*
X212421Y8361D01*
X211639Y7579D01*
X211086Y6621D01*
X210800Y5553D01*
Y4447D01*
X211086Y3379D01*
X211594Y2500D01*
X211429Y2000D01*
X208571D01*
X208406Y2500D01*
X208914Y3379D01*
X209200Y4447D01*
Y5553D01*
X208914Y6621D01*
X208361Y7579D01*
X207579Y8361D01*
X206621Y8914D01*
X205553Y9200D01*
X204447D01*
X203379Y8914D01*
X202421Y8361D01*
X201639Y7579D01*
X201086Y6621D01*
X200800Y5553D01*
Y4447D01*
X201086Y3379D01*
X201594Y2500D01*
X201429Y2000D01*
X198571D01*
X198406Y2500D01*
X198914Y3379D01*
X199200Y4447D01*
Y5553D01*
X198914Y6621D01*
X198361Y7579D01*
X197579Y8361D01*
X196621Y8914D01*
X195553Y9200D01*
X194447D01*
X193379Y8914D01*
X192421Y8361D01*
X191639Y7579D01*
X191086Y6621D01*
X190800Y5553D01*
Y4447D01*
X191086Y3379D01*
X191594Y2500D01*
X191429Y2000D01*
X188571D01*
X188406Y2500D01*
X188914Y3379D01*
X189200Y4447D01*
Y5553D01*
X188914Y6621D01*
X188361Y7579D01*
X187579Y8361D01*
X186621Y8914D01*
X185553Y9200D01*
X184447D01*
X183379Y8914D01*
X182421Y8361D01*
X181639Y7579D01*
X181086Y6621D01*
X180800Y5553D01*
Y4447D01*
X181086Y3379D01*
X181594Y2500D01*
X181429Y2000D01*
X178571D01*
X178406Y2500D01*
X178914Y3379D01*
X179200Y4447D01*
Y5553D01*
X178914Y6621D01*
X178361Y7579D01*
X177579Y8361D01*
X176621Y8914D01*
X175553Y9200D01*
X174447D01*
X173379Y8914D01*
X172421Y8361D01*
X171639Y7579D01*
X171086Y6621D01*
X170800Y5553D01*
Y4447D01*
X171086Y3379D01*
X171594Y2500D01*
X171429Y2000D01*
X168571D01*
X168406Y2500D01*
X168914Y3379D01*
X169200Y4447D01*
Y5553D01*
X168914Y6621D01*
X168361Y7579D01*
X167579Y8361D01*
X166621Y8914D01*
X165553Y9200D01*
X164447D01*
X163379Y8914D01*
X162421Y8361D01*
X161639Y7579D01*
X161086Y6621D01*
X160800Y5553D01*
Y4447D01*
X161086Y3379D01*
X161594Y2500D01*
X161429Y2000D01*
X158571D01*
X158406Y2500D01*
X158914Y3379D01*
X159200Y4447D01*
Y5553D01*
X158914Y6621D01*
X158361Y7579D01*
X157579Y8361D01*
X156621Y8914D01*
X155553Y9200D01*
X154447D01*
X153379Y8914D01*
X152421Y8361D01*
X151639Y7579D01*
X151086Y6621D01*
X150800Y5553D01*
Y4447D01*
X151086Y3379D01*
X151594Y2500D01*
X151429Y2000D01*
X148571D01*
X148406Y2500D01*
X148914Y3379D01*
X149200Y4447D01*
Y5553D01*
X148914Y6621D01*
X148361Y7579D01*
X147579Y8361D01*
X146621Y8914D01*
X145553Y9200D01*
X144447D01*
X143379Y8914D01*
X142421Y8361D01*
X141639Y7579D01*
X141086Y6621D01*
X140800Y5553D01*
Y4447D01*
X141086Y3379D01*
X141594Y2500D01*
X141429Y2000D01*
X138571D01*
X138406Y2500D01*
X138914Y3379D01*
X139200Y4447D01*
Y5553D01*
X138914Y6621D01*
X138361Y7579D01*
X137579Y8361D01*
X136621Y8914D01*
X135553Y9200D01*
X134447D01*
X133379Y8914D01*
X132421Y8361D01*
X131639Y7579D01*
X131086Y6621D01*
X130800Y5553D01*
Y4447D01*
X131086Y3379D01*
X131594Y2500D01*
X131429Y2000D01*
X128571D01*
X128406Y2500D01*
X128914Y3379D01*
X129200Y4447D01*
Y5553D01*
X128914Y6621D01*
X128361Y7579D01*
X127579Y8361D01*
X126621Y8914D01*
X125553Y9200D01*
X124447D01*
X123379Y8914D01*
X122421Y8361D01*
X121639Y7579D01*
X121086Y6621D01*
X120800Y5553D01*
Y4447D01*
X121086Y3379D01*
X121594Y2500D01*
X121429Y2000D01*
X118571D01*
X118406Y2500D01*
X118914Y3379D01*
X119200Y4447D01*
Y5553D01*
X118914Y6621D01*
X118361Y7579D01*
X117579Y8361D01*
X116621Y8914D01*
X115553Y9200D01*
X114447D01*
X113379Y8914D01*
X112421Y8361D01*
X111639Y7579D01*
X111086Y6621D01*
X110800Y5553D01*
Y4447D01*
X111086Y3379D01*
X111594Y2500D01*
X111429Y2000D01*
X108571D01*
X108406Y2500D01*
X108914Y3379D01*
X109200Y4447D01*
Y5553D01*
X108914Y6621D01*
X108361Y7579D01*
X107579Y8361D01*
X106621Y8914D01*
X105553Y9200D01*
X104447D01*
X103379Y8914D01*
X102421Y8361D01*
X101639Y7579D01*
X101086Y6621D01*
X100800Y5553D01*
Y4447D01*
X101086Y3379D01*
X101594Y2500D01*
X101429Y2000D01*
X98571D01*
X98406Y2500D01*
X98914Y3379D01*
X99200Y4447D01*
Y5553D01*
X98914Y6621D01*
X98361Y7579D01*
X97579Y8361D01*
X96621Y8914D01*
X95553Y9200D01*
X94447D01*
X93379Y8914D01*
X92421Y8361D01*
X91639Y7579D01*
X91086Y6621D01*
X90800Y5553D01*
Y4447D01*
X91086Y3379D01*
X91594Y2500D01*
X91429Y2000D01*
X88571D01*
X88406Y2500D01*
X88914Y3379D01*
X89200Y4447D01*
Y5553D01*
X88914Y6621D01*
X88361Y7579D01*
X87579Y8361D01*
X86621Y8914D01*
X85553Y9200D01*
X84447D01*
X83379Y8914D01*
X82421Y8361D01*
X81639Y7579D01*
X81086Y6621D01*
X80800Y5553D01*
Y4447D01*
X81086Y3379D01*
X81594Y2500D01*
X81429Y2000D01*
X78310D01*
X78119Y2462D01*
X78201Y2544D01*
X78727Y3456D01*
X79000Y4473D01*
Y5527D01*
X78727Y6544D01*
X78201Y7456D01*
X77456Y8201D01*
X76544Y8727D01*
X75527Y9000D01*
X74473D01*
X73456Y8727D01*
X72544Y8201D01*
X71799Y7456D01*
X71273Y6544D01*
X71000Y5527D01*
Y4473D01*
X71273Y3456D01*
X71799Y2544D01*
X71881Y2462D01*
X71690Y2000D01*
X68310D01*
X68119Y2462D01*
X68201Y2544D01*
X68727Y3456D01*
X69000Y4473D01*
Y5527D01*
X68727Y6544D01*
X68201Y7456D01*
X67456Y8201D01*
X66544Y8727D01*
X65527Y9000D01*
X64473D01*
X63456Y8727D01*
X62544Y8201D01*
X61799Y7456D01*
X61273Y6544D01*
X61000Y5527D01*
Y4473D01*
X61273Y3456D01*
X61799Y2544D01*
X61881Y2462D01*
X61690Y2000D01*
X58571D01*
X58406Y2500D01*
X58914Y3379D01*
X59200Y4447D01*
Y5553D01*
X58914Y6621D01*
X58361Y7579D01*
X57579Y8361D01*
X56621Y8914D01*
X55553Y9200D01*
X54447D01*
X53379Y8914D01*
X52421Y8361D01*
X51639Y7579D01*
X51086Y6621D01*
X50800Y5553D01*
Y4447D01*
X51086Y3379D01*
X51594Y2500D01*
X51429Y2000D01*
X48571D01*
X48406Y2500D01*
X48914Y3379D01*
X49200Y4447D01*
Y5553D01*
X48914Y6621D01*
X48361Y7579D01*
X47579Y8361D01*
X46621Y8914D01*
X45553Y9200D01*
X44447D01*
X43379Y8914D01*
X42421Y8361D01*
X41639Y7579D01*
X41086Y6621D01*
X40800Y5553D01*
Y4447D01*
X41086Y3379D01*
X41594Y2500D01*
X41429Y2000D01*
X2000D01*
Y98000D01*
X31429D01*
X31594Y97500D01*
X31086Y96621D01*
X30800Y95553D01*
Y94447D01*
X31086Y93379D01*
X31639Y92421D01*
X32421Y91639D01*
X33379Y91086D01*
X34447Y90800D01*
X35553D01*
X36621Y91086D01*
X37579Y91639D01*
X38361Y92421D01*
X38914Y93379D01*
X39200Y94447D01*
Y95553D01*
X38914Y96621D01*
X38406Y97500D01*
X38571Y98000D01*
X51429D01*
X51594Y97500D01*
X51086Y96621D01*
X50800Y95553D01*
Y94447D01*
X51086Y93379D01*
X51639Y92421D01*
X52421Y91639D01*
X53379Y91086D01*
X54447Y90800D01*
X55553D01*
X56621Y91086D01*
X57579Y91639D01*
X58361Y92421D01*
X58914Y93379D01*
X59200Y94447D01*
Y95553D01*
X58914Y96621D01*
X58406Y97500D01*
X58571Y98000D01*
X61429D01*
X61594Y97500D01*
X61086Y96621D01*
X60800Y95553D01*
Y94447D01*
X61086Y93379D01*
X61639Y92421D01*
X62421Y91639D01*
X63379Y91086D01*
X64447Y90800D01*
X65553D01*
X66621Y91086D01*
X67579Y91639D01*
X68361Y92421D01*
X68914Y93379D01*
X69200Y94447D01*
Y95553D01*
X68914Y96621D01*
X68406Y97500D01*
X68571Y98000D01*
X71429D01*
X71594Y97500D01*
D02*
G37*
G36*
X260800Y90800D02*
X268000D01*
Y2000D01*
X258571D01*
X258406Y2500D01*
X258914Y3379D01*
X259200Y4447D01*
Y5553D01*
X258914Y6621D01*
X258361Y7579D01*
X257579Y8361D01*
X256621Y8914D01*
X255553Y9200D01*
X254447D01*
X253379Y8914D01*
X252421Y8361D01*
X251639Y7579D01*
X251086Y6621D01*
X250800Y5553D01*
Y4447D01*
X251086Y3379D01*
X251594Y2500D01*
X251429Y2000D01*
X248571D01*
X248406Y2500D01*
X248914Y3379D01*
X249200Y4447D01*
Y5553D01*
X248914Y6621D01*
X248361Y7579D01*
X247579Y8361D01*
X246621Y8914D01*
X245553Y9200D01*
X244447D01*
X243379Y8914D01*
X242421Y8361D01*
X241639Y7579D01*
X241086Y6621D01*
X240800Y5553D01*
Y4447D01*
X241086Y3379D01*
X241594Y2500D01*
X241429Y2000D01*
X238571D01*
X238406Y2500D01*
X238914Y3379D01*
X239200Y4447D01*
Y5553D01*
X238914Y6621D01*
X238361Y7579D01*
X237579Y8361D01*
X236621Y8914D01*
X235553Y9200D01*
X234447D01*
X233379Y8914D01*
X232500Y8406D01*
X232000Y8571D01*
Y12000D01*
X238000Y18000D01*
X248000D01*
X252000Y22000D01*
Y24055D01*
X252416Y24333D01*
X252496Y24300D01*
X253371D01*
X254179Y24635D01*
X254606Y25062D01*
X255033Y24635D01*
X255842Y24300D01*
X256717D01*
X257526Y24635D01*
X258145Y25254D01*
X258479Y26062D01*
Y26938D01*
X258145Y27746D01*
X257526Y28365D01*
X256717Y28700D01*
X255842D01*
X255033Y28365D01*
X254606Y27938D01*
X254179Y28365D01*
X253371Y28700D01*
X252496D01*
X252416Y28667D01*
X252000Y28945D01*
Y42560D01*
X252208Y43062D01*
Y43938D01*
X252000Y44440D01*
Y49057D01*
X252208Y49558D01*
Y50434D01*
X252000Y50936D01*
Y55553D01*
X252208Y56055D01*
Y56930D01*
X252000Y57432D01*
Y78000D01*
X250000Y80000D01*
X206000D01*
X204000Y78000D01*
X190000D01*
X178000Y66000D01*
X150000D01*
X146000Y62000D01*
Y47900D01*
X140500D01*
Y49803D01*
X140526Y50000D01*
X140500Y50197D01*
Y53000D01*
Y55500D01*
X134000Y62000D01*
X120000D01*
Y74000D01*
X110000Y84000D01*
X92000D01*
Y91429D01*
X92500Y91594D01*
X93379Y91086D01*
X94447Y90800D01*
X95553D01*
X96621Y91086D01*
X97579Y91639D01*
X98361Y92421D01*
X98914Y93379D01*
X99200Y94447D01*
Y95553D01*
X98914Y96621D01*
X98406Y97500D01*
X98571Y98000D01*
X101429D01*
X101594Y97500D01*
X101086Y96621D01*
X100800Y95553D01*
Y94447D01*
X101086Y93379D01*
X101639Y92421D01*
X102421Y91639D01*
X103379Y91086D01*
X104447Y90800D01*
X105553D01*
X106621Y91086D01*
X107579Y91639D01*
X108361Y92421D01*
X108914Y93379D01*
X109200Y94447D01*
Y95553D01*
X108914Y96621D01*
X108406Y97500D01*
X108571Y98000D01*
X111429D01*
X111594Y97500D01*
X111086Y96621D01*
X110800Y95553D01*
Y94447D01*
X111086Y93379D01*
X111639Y92421D01*
X112421Y91639D01*
X113379Y91086D01*
X114447Y90800D01*
X115553D01*
X116621Y91086D01*
X117579Y91639D01*
X118361Y92421D01*
X118914Y93379D01*
X119200Y94447D01*
Y95553D01*
X118914Y96621D01*
X118406Y97500D01*
X118571Y98000D01*
X121429D01*
X121594Y97500D01*
X121086Y96621D01*
X120800Y95553D01*
Y94447D01*
X121086Y93379D01*
X121639Y92421D01*
X122421Y91639D01*
X123379Y91086D01*
X124447Y90800D01*
X125553D01*
X126621Y91086D01*
X127579Y91639D01*
X128361Y92421D01*
X128914Y93379D01*
X129200Y94447D01*
Y95553D01*
X128914Y96621D01*
X128406Y97500D01*
X128571Y98000D01*
X131429D01*
X131594Y97500D01*
X131086Y96621D01*
X130800Y95553D01*
Y94447D01*
X131086Y93379D01*
X131639Y92421D01*
X132421Y91639D01*
X133379Y91086D01*
X134447Y90800D01*
X135553D01*
X136621Y91086D01*
X137579Y91639D01*
X138361Y92421D01*
X138914Y93379D01*
X139200Y94447D01*
Y95553D01*
X138914Y96621D01*
X138406Y97500D01*
X138571Y98000D01*
X141429D01*
X141594Y97500D01*
X141086Y96621D01*
X140800Y95553D01*
Y94447D01*
X141086Y93379D01*
X141639Y92421D01*
X142421Y91639D01*
X143379Y91086D01*
X144447Y90800D01*
X145553D01*
X146621Y91086D01*
X147579Y91639D01*
X148361Y92421D01*
X148914Y93379D01*
X149200Y94447D01*
Y95553D01*
X148914Y96621D01*
X148406Y97500D01*
X148571Y98000D01*
X151429D01*
X151594Y97500D01*
X151086Y96621D01*
X150800Y95553D01*
Y94447D01*
X151086Y93379D01*
X151639Y92421D01*
X152421Y91639D01*
X153379Y91086D01*
X154447Y90800D01*
X155553D01*
X156621Y91086D01*
X157579Y91639D01*
X158361Y92421D01*
X158914Y93379D01*
X159200Y94447D01*
Y95553D01*
X158914Y96621D01*
X158406Y97500D01*
X158571Y98000D01*
X161429D01*
X161594Y97500D01*
X161086Y96621D01*
X160800Y95553D01*
Y94447D01*
X161086Y93379D01*
X161639Y92421D01*
X162421Y91639D01*
X163379Y91086D01*
X164447Y90800D01*
X165553D01*
X166621Y91086D01*
X167579Y91639D01*
X168361Y92421D01*
X168914Y93379D01*
X169200Y94447D01*
Y95553D01*
X168914Y96621D01*
X168406Y97500D01*
X168571Y98000D01*
X171429D01*
X171594Y97500D01*
X171086Y96621D01*
X170800Y95553D01*
Y94447D01*
X171086Y93379D01*
X171639Y92421D01*
X172421Y91639D01*
X173379Y91086D01*
X174447Y90800D01*
X175553D01*
X176621Y91086D01*
X177579Y91639D01*
X178361Y92421D01*
X178914Y93379D01*
X179200Y94447D01*
Y95553D01*
X178914Y96621D01*
X178406Y97500D01*
X178571Y98000D01*
X181429D01*
X181594Y97500D01*
X181086Y96621D01*
X180800Y95553D01*
Y94447D01*
X181086Y93379D01*
X181639Y92421D01*
X182421Y91639D01*
X183379Y91086D01*
X184447Y90800D01*
X185553D01*
X186621Y91086D01*
X187579Y91639D01*
X188361Y92421D01*
X188914Y93379D01*
X189200Y94447D01*
Y95553D01*
X188914Y96621D01*
X188406Y97500D01*
X188571Y98000D01*
X191429D01*
X191594Y97500D01*
X191086Y96621D01*
X190800Y95553D01*
Y94447D01*
X191086Y93379D01*
X191639Y92421D01*
X192421Y91639D01*
X193379Y91086D01*
X194447Y90800D01*
X195553D01*
X196621Y91086D01*
X197579Y91639D01*
X198361Y92421D01*
X198914Y93379D01*
X199200Y94447D01*
Y95553D01*
X198914Y96621D01*
X198406Y97500D01*
X198571Y98000D01*
X201429D01*
X201594Y97500D01*
X201086Y96621D01*
X200800Y95553D01*
Y94447D01*
X201086Y93379D01*
X201639Y92421D01*
X202421Y91639D01*
X203379Y91086D01*
X204447Y90800D01*
X205553D01*
X206621Y91086D01*
X207579Y91639D01*
X208361Y92421D01*
X208914Y93379D01*
X209200Y94447D01*
Y95553D01*
X208914Y96621D01*
X208406Y97500D01*
X208571Y98000D01*
X211429D01*
X211594Y97500D01*
X211086Y96621D01*
X210800Y95553D01*
Y94447D01*
X211086Y93379D01*
X211639Y92421D01*
X212421Y91639D01*
X213379Y91086D01*
X214447Y90800D01*
X215553D01*
X216621Y91086D01*
X217579Y91639D01*
X218361Y92421D01*
X218914Y93379D01*
X219200Y94447D01*
Y95553D01*
X218914Y96621D01*
X218406Y97500D01*
X218571Y98000D01*
X221429D01*
X221594Y97500D01*
X221086Y96621D01*
X220800Y95553D01*
Y94447D01*
X221086Y93379D01*
X221639Y92421D01*
X222421Y91639D01*
X223379Y91086D01*
X224447Y90800D01*
X225553D01*
X226621Y91086D01*
X227579Y91639D01*
X228361Y92421D01*
X228914Y93379D01*
X229200Y94447D01*
Y95553D01*
X228914Y96621D01*
X228406Y97500D01*
X228571Y98000D01*
X231429D01*
X231594Y97500D01*
X231086Y96621D01*
X230800Y95553D01*
Y94447D01*
X231086Y93379D01*
X231639Y92421D01*
X232421Y91639D01*
X233379Y91086D01*
X234447Y90800D01*
X235553D01*
X236621Y91086D01*
X237579Y91639D01*
X238361Y92421D01*
X238914Y93379D01*
X239200Y94447D01*
Y95553D01*
X238914Y96621D01*
X238406Y97500D01*
X238571Y98000D01*
X241429D01*
X241594Y97500D01*
X241086Y96621D01*
X240800Y95553D01*
Y94447D01*
X241086Y93379D01*
X241639Y92421D01*
X242421Y91639D01*
X243379Y91086D01*
X244080Y90898D01*
X244229Y90341D01*
X244135Y90246D01*
X243800Y89438D01*
Y88562D01*
X244135Y87754D01*
X244754Y87135D01*
X245562Y86800D01*
X246438D01*
X247246Y87135D01*
X247865Y87754D01*
X248200Y88562D01*
Y89438D01*
X247865Y90246D01*
X247246Y90865D01*
X247181Y90892D01*
X247149Y91391D01*
X247579Y91639D01*
X248361Y92421D01*
X248914Y93379D01*
X249200Y94447D01*
Y95553D01*
X248914Y96621D01*
X248406Y97500D01*
X248571Y98000D01*
X260800D01*
Y90800D01*
D02*
G37*
G36*
X69500Y14000D02*
X47700D01*
Y22500D01*
X69500D01*
Y14000D01*
D02*
G37*
G36*
X256228Y7964D02*
X256953Y7545D01*
X257545Y6953D01*
X257964Y6228D01*
X258180Y5419D01*
Y4581D01*
X257964Y3772D01*
X257523Y3010D01*
X257514Y2982D01*
X257496Y2960D01*
X257450Y2795D01*
X257396Y2633D01*
X257397Y2604D01*
X257390Y2576D01*
X257399Y2500D01*
X257288Y2278D01*
X257067Y2046D01*
X256980Y2000D01*
X253019D01*
X252933Y2046D01*
X252712Y2278D01*
X252601Y2500D01*
X252610Y2576D01*
X252603Y2604D01*
X252605Y2633D01*
X252550Y2795D01*
X252504Y2960D01*
X252486Y2982D01*
X252477Y3010D01*
X252036Y3772D01*
X251820Y4581D01*
Y5419D01*
X252036Y6228D01*
X252455Y6953D01*
X253047Y7545D01*
X253772Y7964D01*
X254581Y8180D01*
X255419D01*
X256228Y7964D01*
D02*
G37*
%LPC*%
G36*
X35898Y80000D02*
X35102D01*
X34367Y79695D01*
X33805Y79133D01*
X33750Y79001D01*
X33250D01*
X33195Y79133D01*
X32633Y79695D01*
X31898Y80000D01*
X31102D01*
X30367Y79695D01*
X29805Y79133D01*
X29500Y78398D01*
Y77602D01*
X29805Y76867D01*
X30367Y76305D01*
X31102Y76000D01*
X31898D01*
X32633Y76305D01*
X33195Y76867D01*
X33250Y76999D01*
X33750D01*
X33805Y76867D01*
X34367Y76305D01*
X35102Y76000D01*
X35898D01*
X36633Y76305D01*
X37196Y76867D01*
X37500Y77602D01*
Y78398D01*
X37196Y79133D01*
X36633Y79695D01*
X35898Y80000D01*
D02*
G37*
G36*
X48398D02*
X47602D01*
X46867Y79695D01*
X46305Y79133D01*
X46000Y78398D01*
Y77602D01*
X46305Y76867D01*
X46867Y76305D01*
X46999Y76250D01*
Y75750D01*
X46867Y75696D01*
X46305Y75133D01*
X46000Y74398D01*
Y73602D01*
X46305Y72867D01*
X46867Y72304D01*
X47602Y72000D01*
X48398D01*
X49133Y72304D01*
X49696Y72867D01*
X50000Y73602D01*
Y74398D01*
X49696Y75133D01*
X49133Y75696D01*
X49001Y75750D01*
Y76250D01*
X49133Y76305D01*
X49696Y76867D01*
X50000Y77602D01*
Y78398D01*
X49696Y79133D01*
X49133Y79695D01*
X48398Y80000D01*
D02*
G37*
G36*
X243245Y75700D02*
X242370D01*
X241561Y75365D01*
X240942Y74746D01*
X240607Y73938D01*
Y73062D01*
X240942Y72254D01*
X241561Y71635D01*
X242370Y71300D01*
X243245D01*
X244053Y71635D01*
X244672Y72254D01*
X245007Y73062D01*
Y73938D01*
X244672Y74746D01*
X244053Y75365D01*
X243245Y75700D01*
D02*
G37*
G36*
X236552D02*
X235677D01*
X234868Y75365D01*
X234249Y74746D01*
X233914Y73938D01*
Y73062D01*
X234249Y72254D01*
X234868Y71635D01*
X235677Y71300D01*
X236552D01*
X237360Y71635D01*
X237979Y72254D01*
X238314Y73062D01*
Y73938D01*
X237979Y74746D01*
X237360Y75365D01*
X236552Y75700D01*
D02*
G37*
G36*
X229859D02*
X228984D01*
X228175Y75365D01*
X227556Y74746D01*
X227221Y73938D01*
Y73062D01*
X227556Y72254D01*
X228175Y71635D01*
X228984Y71300D01*
X229859D01*
X230667Y71635D01*
X231286Y72254D01*
X231621Y73062D01*
Y73938D01*
X231286Y74746D01*
X230667Y75365D01*
X229859Y75700D01*
D02*
G37*
G36*
X223166D02*
X222291D01*
X221482Y75365D01*
X220863Y74746D01*
X220528Y73938D01*
Y73062D01*
X220863Y72254D01*
X221482Y71635D01*
X222291Y71300D01*
X223166D01*
X223974Y71635D01*
X224593Y72254D01*
X224928Y73062D01*
Y73938D01*
X224593Y74746D01*
X223974Y75365D01*
X223166Y75700D01*
D02*
G37*
G36*
X216473D02*
X215598D01*
X214789Y75365D01*
X214170Y74746D01*
X213835Y73938D01*
Y73062D01*
X214170Y72254D01*
X214789Y71635D01*
X215598Y71300D01*
X216473D01*
X217282Y71635D01*
X217900Y72254D01*
X218235Y73062D01*
Y73938D01*
X217900Y74746D01*
X217282Y75365D01*
X216473Y75700D01*
D02*
G37*
G36*
X195438Y75200D02*
X194562D01*
X193754Y74865D01*
X193135Y74246D01*
X192800Y73438D01*
Y72562D01*
X193135Y71754D01*
X193754Y71135D01*
X194562Y70800D01*
X195438D01*
X196246Y71135D01*
X196865Y71754D01*
X197200Y72562D01*
Y73438D01*
X196865Y74246D01*
X196246Y74865D01*
X195438Y75200D01*
D02*
G37*
G36*
X88438Y74200D02*
X87562D01*
X86754Y73865D01*
X86135Y73246D01*
X85800Y72438D01*
Y71562D01*
X86135Y70754D01*
X86754Y70135D01*
X87562Y69800D01*
X88438D01*
X89246Y70135D01*
X89865Y70754D01*
X90200Y71562D01*
Y72438D01*
X89865Y73246D01*
X89246Y73865D01*
X88438Y74200D01*
D02*
G37*
G36*
X62938Y70200D02*
X62062D01*
X61254Y69865D01*
X60635Y69246D01*
X60300Y68438D01*
Y67562D01*
X60635Y66754D01*
X61254Y66135D01*
X62062Y65800D01*
X62938D01*
X63746Y66135D01*
X64365Y66754D01*
X64700Y67562D01*
Y68438D01*
X64365Y69246D01*
X63746Y69865D01*
X62938Y70200D01*
D02*
G37*
G36*
X246631Y69700D02*
X245755D01*
X244947Y69365D01*
X244328Y68746D01*
X243993Y67938D01*
Y67062D01*
X244328Y66254D01*
X244947Y65635D01*
X245755Y65300D01*
X246631D01*
X247439Y65635D01*
X248058Y66254D01*
X248393Y67062D01*
Y67938D01*
X248058Y68746D01*
X247439Y69365D01*
X246631Y69700D01*
D02*
G37*
G36*
X239938D02*
X239062D01*
X238254Y69365D01*
X237635Y68746D01*
X237300Y67938D01*
Y67062D01*
X237635Y66254D01*
X238254Y65635D01*
X239062Y65300D01*
X239938D01*
X240746Y65635D01*
X241365Y66254D01*
X241700Y67062D01*
Y67938D01*
X241365Y68746D01*
X240746Y69365D01*
X239938Y69700D01*
D02*
G37*
G36*
X233245D02*
X232369D01*
X231561Y69365D01*
X230942Y68746D01*
X230607Y67938D01*
Y67062D01*
X230942Y66254D01*
X231561Y65635D01*
X232369Y65300D01*
X233245D01*
X234053Y65635D01*
X234672Y66254D01*
X235007Y67062D01*
Y67938D01*
X234672Y68746D01*
X234053Y69365D01*
X233245Y69700D01*
D02*
G37*
G36*
X226552D02*
X225677D01*
X224868Y69365D01*
X224249Y68746D01*
X223914Y67938D01*
Y67062D01*
X224249Y66254D01*
X224868Y65635D01*
X225677Y65300D01*
X226552D01*
X227360Y65635D01*
X227979Y66254D01*
X228314Y67062D01*
Y67938D01*
X227979Y68746D01*
X227360Y69365D01*
X226552Y69700D01*
D02*
G37*
G36*
X219859D02*
X218984D01*
X218175Y69365D01*
X217556Y68746D01*
X217221Y67938D01*
Y67062D01*
X217556Y66254D01*
X218175Y65635D01*
X218984Y65300D01*
X219859D01*
X220668Y65635D01*
X221286Y66254D01*
X221621Y67062D01*
Y67938D01*
X221286Y68746D01*
X220668Y69365D01*
X219859Y69700D01*
D02*
G37*
G36*
X192438Y69200D02*
X191562D01*
X190754Y68865D01*
X190135Y68246D01*
X189800Y67438D01*
Y66562D01*
X190135Y65754D01*
X190754Y65135D01*
X191562Y64800D01*
X192438D01*
X193246Y65135D01*
X193865Y65754D01*
X194200Y66562D01*
Y67438D01*
X193865Y68246D01*
X193246Y68865D01*
X192438Y69200D01*
D02*
G37*
G36*
X186438Y65200D02*
X185562D01*
X184754Y64865D01*
X184135Y64246D01*
X183800Y63438D01*
Y62562D01*
X184135Y61754D01*
X184754Y61135D01*
X185562Y60800D01*
X186438D01*
X187246Y61135D01*
X187865Y61754D01*
X188200Y62562D01*
Y63438D01*
X187865Y64246D01*
X187246Y64865D01*
X186438Y65200D01*
D02*
G37*
G36*
X177938Y63200D02*
X177062D01*
X176254Y62865D01*
X175635Y62246D01*
X175300Y61438D01*
Y60562D01*
X175635Y59754D01*
X176254Y59135D01*
X177062Y58800D01*
X177938D01*
X178746Y59135D01*
X179365Y59754D01*
X179700Y60562D01*
Y61438D01*
X179365Y62246D01*
X178746Y62865D01*
X177938Y63200D01*
D02*
G37*
G36*
X172438D02*
X171562D01*
X170754Y62865D01*
X170135Y62246D01*
X169800Y61438D01*
Y60562D01*
X170135Y59754D01*
X170754Y59135D01*
X171562Y58800D01*
X172438D01*
X173246Y59135D01*
X173865Y59754D01*
X174200Y60562D01*
Y61438D01*
X173865Y62246D01*
X173246Y62865D01*
X172438Y63200D01*
D02*
G37*
G36*
X165438D02*
X164562D01*
X163754Y62865D01*
X163135Y62246D01*
X162800Y61438D01*
Y60562D01*
X163135Y59754D01*
X163754Y59135D01*
X164562Y58800D01*
X165438D01*
X166246Y59135D01*
X166865Y59754D01*
X167200Y60562D01*
Y61438D01*
X166865Y62246D01*
X166246Y62865D01*
X165438Y63200D01*
D02*
G37*
G36*
X158438D02*
X157562D01*
X156754Y62865D01*
X156135Y62246D01*
X155800Y61438D01*
Y60562D01*
X156135Y59754D01*
X156754Y59135D01*
X157562Y58800D01*
X158438D01*
X159246Y59135D01*
X159865Y59754D01*
X160200Y60562D01*
Y61438D01*
X159865Y62246D01*
X159246Y62865D01*
X158438Y63200D01*
D02*
G37*
G36*
X151438D02*
X150562D01*
X149754Y62865D01*
X149135Y62246D01*
X148800Y61438D01*
Y60562D01*
X149135Y59754D01*
X149754Y59135D01*
X150562Y58800D01*
X151438D01*
X152246Y59135D01*
X152865Y59754D01*
X153200Y60562D01*
Y61438D01*
X152865Y62246D01*
X152246Y62865D01*
X151438Y63200D01*
D02*
G37*
G36*
X202898Y53800D02*
X202102D01*
X201367Y53496D01*
X200804Y52933D01*
X200500Y52198D01*
Y51402D01*
X200804Y50667D01*
X201367Y50104D01*
X202102Y49800D01*
X202898D01*
X203633Y50104D01*
X204195Y50667D01*
X204500Y51402D01*
Y52198D01*
X204195Y52933D01*
X203633Y53496D01*
X202898Y53800D01*
D02*
G37*
G36*
X63938Y52200D02*
X63062D01*
X62254Y51865D01*
X61635Y51246D01*
X61300Y50438D01*
Y49562D01*
X61635Y48754D01*
X62254Y48135D01*
X63062Y47800D01*
X63938D01*
X64746Y48135D01*
X65365Y48754D01*
X65700Y49562D01*
Y50438D01*
X65365Y51246D01*
X64746Y51865D01*
X63938Y52200D01*
D02*
G37*
G36*
X187898Y52000D02*
X187102D01*
X186367Y51696D01*
X185804Y51133D01*
X185500Y50398D01*
Y49602D01*
X185804Y48867D01*
X186045Y48627D01*
X186363Y48300D01*
X186045Y47973D01*
X185804Y47733D01*
X185500Y46998D01*
Y46202D01*
X185804Y45467D01*
X186367Y44905D01*
X187102Y44600D01*
X187898D01*
X188633Y44905D01*
X189196Y45467D01*
X189500Y46202D01*
Y46998D01*
X189196Y47733D01*
X188955Y47973D01*
X188637Y48300D01*
X188955Y48627D01*
X189196Y48867D01*
X189500Y49602D01*
Y50398D01*
X189196Y51133D01*
X188633Y51696D01*
X187898Y52000D01*
D02*
G37*
G36*
X202898Y46800D02*
X202102D01*
X201367Y46496D01*
X200804Y45933D01*
X200500Y45198D01*
Y44402D01*
X200804Y43667D01*
X201367Y43104D01*
X202102Y42800D01*
X202898D01*
X203633Y43104D01*
X204195Y43667D01*
X204500Y44402D01*
Y45198D01*
X204195Y45933D01*
X203633Y46496D01*
X202898Y46800D01*
D02*
G37*
G36*
X40500Y58000D02*
X34500D01*
Y52000D01*
X34613D01*
X34902Y51500D01*
X34704Y51158D01*
X34500Y50395D01*
Y49605D01*
X34704Y48842D01*
X35099Y48158D01*
X35418Y47839D01*
X35604Y47500D01*
X35418Y47161D01*
X35099Y46842D01*
X34704Y46158D01*
X34500Y45395D01*
Y44605D01*
X34704Y43842D01*
X35099Y43158D01*
X35658Y42599D01*
X36342Y42204D01*
X37105Y42000D01*
X37895D01*
X38658Y42204D01*
X39342Y42599D01*
X39901Y43158D01*
X40296Y43842D01*
X40500Y44605D01*
Y45395D01*
X40296Y46158D01*
X39901Y46842D01*
X39582Y47161D01*
X39396Y47500D01*
X39582Y47839D01*
X39901Y48158D01*
X40296Y48842D01*
X40500Y49605D01*
Y50395D01*
X40296Y51158D01*
X40098Y51500D01*
X40387Y52000D01*
X40500D01*
Y58000D01*
D02*
G37*
G36*
X199438Y40200D02*
X198562D01*
X197754Y39865D01*
X197135Y39246D01*
X196800Y38438D01*
Y37562D01*
X197135Y36754D01*
X197754Y36135D01*
X198562Y35800D01*
X199438D01*
X200246Y36135D01*
X200865Y36754D01*
X201200Y37562D01*
Y38438D01*
X200865Y39246D01*
X200246Y39865D01*
X199438Y40200D01*
D02*
G37*
G36*
X192438D02*
X191562D01*
X190754Y39865D01*
X190135Y39246D01*
X189800Y38438D01*
Y37562D01*
X190135Y36754D01*
X190754Y36135D01*
X191562Y35800D01*
X192438D01*
X193246Y36135D01*
X193865Y36754D01*
X194200Y37562D01*
Y38438D01*
X193865Y39246D01*
X193246Y39865D01*
X192438Y40200D01*
D02*
G37*
G36*
X184438D02*
X183562D01*
X182754Y39865D01*
X182135Y39246D01*
X181800Y38438D01*
Y37562D01*
X182135Y36754D01*
X182754Y36135D01*
X183562Y35800D01*
X184438D01*
X185246Y36135D01*
X185865Y36754D01*
X186200Y37562D01*
Y38438D01*
X185865Y39246D01*
X185246Y39865D01*
X184438Y40200D01*
D02*
G37*
G36*
X177438D02*
X176562D01*
X175754Y39865D01*
X175135Y39246D01*
X174800Y38438D01*
Y37562D01*
X175135Y36754D01*
X175754Y36135D01*
X176562Y35800D01*
X177438D01*
X178246Y36135D01*
X178865Y36754D01*
X179200Y37562D01*
Y38438D01*
X178865Y39246D01*
X178246Y39865D01*
X177438Y40200D01*
D02*
G37*
G36*
X243292Y34700D02*
X242417D01*
X241608Y34365D01*
X240989Y33746D01*
X240654Y32938D01*
Y32062D01*
X240989Y31254D01*
X241608Y30635D01*
X242417Y30300D01*
X243292D01*
X244100Y30635D01*
X244719Y31254D01*
X245054Y32062D01*
Y32938D01*
X244719Y33746D01*
X244100Y34365D01*
X243292Y34700D01*
D02*
G37*
G36*
X236599D02*
X235724D01*
X234915Y34365D01*
X234296Y33746D01*
X233961Y32938D01*
Y32062D01*
X234296Y31254D01*
X234915Y30635D01*
X235724Y30300D01*
X236599D01*
X237408Y30635D01*
X238026Y31254D01*
X238361Y32062D01*
Y32938D01*
X238026Y33746D01*
X237408Y34365D01*
X236599Y34700D01*
D02*
G37*
G36*
X229906D02*
X229031D01*
X228222Y34365D01*
X227603Y33746D01*
X227269Y32938D01*
Y32062D01*
X227603Y31254D01*
X228222Y30635D01*
X229031Y30300D01*
X229906D01*
X230715Y30635D01*
X231334Y31254D01*
X231668Y32062D01*
Y32938D01*
X231334Y33746D01*
X230715Y34365D01*
X229906Y34700D01*
D02*
G37*
G36*
X223213D02*
X222338D01*
X221529Y34365D01*
X220911Y33746D01*
X220576Y32938D01*
Y32062D01*
X220911Y31254D01*
X221529Y30635D01*
X222338Y30300D01*
X223213D01*
X224022Y30635D01*
X224641Y31254D01*
X224976Y32062D01*
Y32938D01*
X224641Y33746D01*
X224022Y34365D01*
X223213Y34700D01*
D02*
G37*
G36*
X216520D02*
X215645D01*
X214837Y34365D01*
X214218Y33746D01*
X213883Y32938D01*
Y32062D01*
X214218Y31254D01*
X214837Y30635D01*
X215645Y30300D01*
X216520D01*
X217329Y30635D01*
X217948Y31254D01*
X218283Y32062D01*
Y32938D01*
X217948Y33746D01*
X217329Y34365D01*
X216520Y34700D01*
D02*
G37*
G36*
X198438Y32200D02*
X197562D01*
X196754Y31865D01*
X196135Y31246D01*
X195800Y30438D01*
Y29562D01*
X196135Y28754D01*
X196754Y28135D01*
X197562Y27800D01*
X198438D01*
X199246Y28135D01*
X199865Y28754D01*
X200200Y29562D01*
Y30438D01*
X199865Y31246D01*
X199246Y31865D01*
X198438Y32200D01*
D02*
G37*
G36*
X191438D02*
X190562D01*
X189754Y31865D01*
X189135Y31246D01*
X188800Y30438D01*
Y29562D01*
X189135Y28754D01*
X189754Y28135D01*
X190562Y27800D01*
X191438D01*
X192246Y28135D01*
X192865Y28754D01*
X193200Y29562D01*
Y30438D01*
X192865Y31246D01*
X192246Y31865D01*
X191438Y32200D01*
D02*
G37*
G36*
X246678Y28700D02*
X245803D01*
X244994Y28365D01*
X244375Y27746D01*
X244040Y26938D01*
Y26062D01*
X244375Y25254D01*
X244994Y24635D01*
X245803Y24300D01*
X246678D01*
X247486Y24635D01*
X248105Y25254D01*
X248440Y26062D01*
Y26938D01*
X248105Y27746D01*
X247486Y28365D01*
X246678Y28700D01*
D02*
G37*
G36*
X239985D02*
X239110D01*
X238301Y28365D01*
X237682Y27746D01*
X237347Y26938D01*
Y26062D01*
X237682Y25254D01*
X238301Y24635D01*
X239110Y24300D01*
X239985D01*
X240793Y24635D01*
X241412Y25254D01*
X241747Y26062D01*
Y26938D01*
X241412Y27746D01*
X240793Y28365D01*
X239985Y28700D01*
D02*
G37*
G36*
X233292D02*
X232417D01*
X231608Y28365D01*
X230989Y27746D01*
X230654Y26938D01*
Y26062D01*
X230989Y25254D01*
X231608Y24635D01*
X232417Y24300D01*
X233292D01*
X234101Y24635D01*
X234719Y25254D01*
X235054Y26062D01*
Y26938D01*
X234719Y27746D01*
X234101Y28365D01*
X233292Y28700D01*
D02*
G37*
G36*
X226599D02*
X225724D01*
X224915Y28365D01*
X224296Y27746D01*
X223961Y26938D01*
Y26062D01*
X224296Y25254D01*
X224915Y24635D01*
X225724Y24300D01*
X226599D01*
X227408Y24635D01*
X228027Y25254D01*
X228361Y26062D01*
Y26938D01*
X228027Y27746D01*
X227408Y28365D01*
X226599Y28700D01*
D02*
G37*
G36*
X219906D02*
X219031D01*
X218222Y28365D01*
X217603Y27746D01*
X217268Y26938D01*
Y26062D01*
X217603Y25254D01*
X218222Y24635D01*
X219031Y24300D01*
X219906D01*
X220715Y24635D01*
X221334Y25254D01*
X221669Y26062D01*
Y26938D01*
X221334Y27746D01*
X220715Y28365D01*
X219906Y28700D01*
D02*
G37*
G36*
X131438Y85200D02*
X130562D01*
X129754Y84865D01*
X129135Y84246D01*
X128800Y83438D01*
Y82562D01*
X129135Y81754D01*
X129754Y81135D01*
X130562Y80800D01*
X131438D01*
X132246Y81135D01*
X132865Y81754D01*
X133200Y82562D01*
Y83438D01*
X132865Y84246D01*
X132246Y84865D01*
X131438Y85200D01*
D02*
G37*
G36*
X259938Y84200D02*
X259062D01*
X258254Y83865D01*
X257635Y83246D01*
X257300Y82438D01*
Y81562D01*
X257635Y80754D01*
X258254Y80135D01*
X259062Y79800D01*
X259938D01*
X260746Y80135D01*
X261365Y80754D01*
X261700Y81562D01*
Y82438D01*
X261365Y83246D01*
X260746Y83865D01*
X259938Y84200D01*
D02*
G37*
G36*
X166438Y81200D02*
X165562D01*
X164754Y80865D01*
X164135Y80246D01*
X163800Y79438D01*
Y78562D01*
X164135Y77754D01*
X164754Y77135D01*
X165562Y76800D01*
X166438D01*
X167246Y77135D01*
X167865Y77754D01*
X168200Y78562D01*
Y79438D01*
X167865Y80246D01*
X167246Y80865D01*
X166438Y81200D01*
D02*
G37*
G36*
X156438D02*
X155562D01*
X154754Y80865D01*
X154135Y80246D01*
X153800Y79438D01*
Y78562D01*
X154135Y77754D01*
X154754Y77135D01*
X155562Y76800D01*
X156438D01*
X157246Y77135D01*
X157865Y77754D01*
X158200Y78562D01*
Y79438D01*
X157865Y80246D01*
X157246Y80865D01*
X156438Y81200D01*
D02*
G37*
G36*
X259977Y75700D02*
X259102D01*
X258293Y75365D01*
X257674Y74746D01*
X257339Y73938D01*
Y73062D01*
X257674Y72254D01*
X258293Y71635D01*
X259102Y71300D01*
X259977D01*
X260729Y71611D01*
X260945Y71443D01*
X261095Y71263D01*
X260804Y70560D01*
Y69684D01*
X261139Y68876D01*
X261566Y68449D01*
X261139Y68022D01*
X260804Y67213D01*
Y66338D01*
X261139Y65529D01*
X261566Y65102D01*
X261139Y64675D01*
X260804Y63867D01*
Y62991D01*
X261139Y62183D01*
X261566Y61756D01*
X261139Y61329D01*
X260804Y60520D01*
Y59645D01*
X261139Y58837D01*
X261566Y58410D01*
X261139Y57982D01*
X260804Y57174D01*
Y56299D01*
X261139Y55490D01*
X261566Y55063D01*
X261139Y54636D01*
X260804Y53827D01*
Y52952D01*
X261139Y52144D01*
X261566Y51717D01*
X261139Y51289D01*
X260804Y50481D01*
Y49606D01*
X261139Y48797D01*
X261566Y48370D01*
X261139Y47943D01*
X260804Y47135D01*
Y46259D01*
X261139Y45451D01*
X261566Y45024D01*
X261139Y44597D01*
X260804Y43788D01*
Y42913D01*
X261139Y42104D01*
X261566Y41677D01*
X261139Y41250D01*
X260804Y40442D01*
Y39566D01*
X261139Y38758D01*
X261566Y38331D01*
X261139Y37904D01*
X260804Y37095D01*
Y36220D01*
X261139Y35411D01*
X261566Y34984D01*
X261139Y34557D01*
X260804Y33749D01*
Y32873D01*
X261139Y32065D01*
X261566Y31638D01*
X261139Y31211D01*
X260804Y30402D01*
Y29527D01*
X261139Y28718D01*
X261566Y28291D01*
X261139Y27864D01*
X260804Y27056D01*
Y26180D01*
X261139Y25372D01*
X261758Y24753D01*
X262566Y24418D01*
X263442D01*
X264250Y24753D01*
X264869Y25372D01*
X265204Y26180D01*
Y27056D01*
X264869Y27864D01*
X264442Y28291D01*
X264869Y28718D01*
X265204Y29527D01*
Y30402D01*
X264869Y31211D01*
X264442Y31638D01*
X264869Y32065D01*
X265204Y32873D01*
Y33749D01*
X264869Y34557D01*
X264442Y34984D01*
X264869Y35411D01*
X265204Y36220D01*
Y37095D01*
X264869Y37904D01*
X264442Y38331D01*
X264869Y38758D01*
X265204Y39566D01*
Y40442D01*
X264869Y41250D01*
X264442Y41677D01*
X264869Y42104D01*
X265204Y42913D01*
Y43788D01*
X264869Y44597D01*
X264442Y45024D01*
X264869Y45451D01*
X265204Y46259D01*
Y47135D01*
X264869Y47943D01*
X264442Y48370D01*
X264869Y48797D01*
X265204Y49606D01*
Y50481D01*
X264869Y51289D01*
X264442Y51717D01*
X264869Y52144D01*
X265204Y52952D01*
Y53827D01*
X264869Y54636D01*
X264442Y55063D01*
X264869Y55490D01*
X265204Y56299D01*
Y57174D01*
X264869Y57982D01*
X264442Y58410D01*
X264869Y58837D01*
X265204Y59645D01*
Y60520D01*
X264869Y61329D01*
X264442Y61756D01*
X264869Y62183D01*
X265204Y62991D01*
Y63867D01*
X264869Y64675D01*
X264442Y65102D01*
X264869Y65529D01*
X265204Y66338D01*
Y67213D01*
X264869Y68022D01*
X264442Y68449D01*
X264869Y68876D01*
X265204Y69684D01*
Y70560D01*
X264869Y71368D01*
X264442Y71795D01*
X264869Y72222D01*
X265204Y73031D01*
Y73906D01*
X264869Y74715D01*
X264250Y75334D01*
X263442Y75669D01*
X262566D01*
X261758Y75334D01*
X261287Y74863D01*
X260786Y75365D01*
X259977Y75700D01*
D02*
G37*
G36*
X265438Y20200D02*
X264562D01*
X263754Y19865D01*
X263135Y19246D01*
X262800Y18438D01*
Y17562D01*
X263135Y16754D01*
X263754Y16135D01*
X264562Y15800D01*
X265438D01*
X266246Y16135D01*
X266865Y16754D01*
X267200Y17562D01*
Y18438D01*
X266865Y19246D01*
X266246Y19865D01*
X265438Y20200D01*
D02*
G37*
%LPD*%
G36*
X260208Y74501D02*
X260566Y74142D01*
X260897Y73921D01*
X261287Y73844D01*
X261678Y73921D01*
X262008Y74142D01*
X262335Y74469D01*
X262769Y74649D01*
X263239D01*
X263673Y74469D01*
X264005Y74137D01*
X264184Y73703D01*
Y73234D01*
X264005Y72800D01*
X263721Y72516D01*
X263500Y72185D01*
X263422Y71795D01*
X263500Y71405D01*
X263721Y71074D01*
X264005Y70791D01*
X264184Y70357D01*
Y69887D01*
X264005Y69453D01*
X263721Y69170D01*
X263500Y68839D01*
X263422Y68449D01*
X263500Y68059D01*
X263721Y67728D01*
X264005Y67444D01*
X264184Y67010D01*
Y66541D01*
X264005Y66107D01*
X263721Y65823D01*
X263500Y65492D01*
X263422Y65102D01*
Y65102D01*
Y65102D01*
X263453Y64947D01*
X263500Y64712D01*
X263500Y64712D01*
Y64712D01*
X263611Y64546D01*
X263721Y64381D01*
X263721D01*
Y64381D01*
X264005Y64098D01*
X264184Y63664D01*
Y63194D01*
X264005Y62761D01*
X263721Y62477D01*
X263500Y62146D01*
X263422Y61756D01*
X263500Y61366D01*
X263721Y61035D01*
X264005Y60751D01*
X264184Y60317D01*
Y59848D01*
X264005Y59414D01*
X263721Y59130D01*
X263500Y58800D01*
X263422Y58410D01*
X263500Y58019D01*
X263721Y57688D01*
X264005Y57405D01*
X264184Y56971D01*
Y56501D01*
X264005Y56068D01*
X263721Y55784D01*
Y55784D01*
X263721D01*
X263500Y55453D01*
X263438Y55141D01*
X263422Y55063D01*
Y55063D01*
D01*
X263500Y54673D01*
X263648Y54452D01*
X263721Y54342D01*
X263721D01*
Y54342D01*
X264005Y54058D01*
X264184Y53625D01*
Y53155D01*
X264005Y52721D01*
X263721Y52438D01*
X263500Y52107D01*
X263422Y51717D01*
X263500Y51326D01*
X263721Y50996D01*
X264005Y50712D01*
X264184Y50278D01*
Y49808D01*
X264005Y49375D01*
X263721Y49091D01*
X263500Y48760D01*
X263422Y48370D01*
X263500Y47980D01*
X263721Y47649D01*
X264005Y47365D01*
X264184Y46932D01*
Y46462D01*
X264005Y46028D01*
X263721Y45745D01*
X263500Y45414D01*
X263422Y45024D01*
Y45024D01*
Y45024D01*
X263453Y44868D01*
X263500Y44633D01*
X263500Y44633D01*
Y44633D01*
X263611Y44467D01*
X263721Y44303D01*
X263721D01*
Y44303D01*
X264005Y44019D01*
X264184Y43585D01*
Y43116D01*
X264005Y42682D01*
X263721Y42398D01*
X263500Y42067D01*
X263422Y41677D01*
X263500Y41287D01*
X263721Y40956D01*
X264005Y40673D01*
X264184Y40239D01*
Y39769D01*
X264005Y39335D01*
X263721Y39052D01*
X263500Y38721D01*
X263422Y38331D01*
X263500Y37940D01*
X263721Y37610D01*
X264005Y37326D01*
X264184Y36892D01*
Y36423D01*
X264005Y35989D01*
X263721Y35705D01*
Y35705D01*
X263721D01*
X263500Y35374D01*
X263438Y35062D01*
X263422Y34984D01*
Y34984D01*
D01*
X263500Y34594D01*
X263648Y34373D01*
X263721Y34263D01*
X263721D01*
Y34263D01*
X264005Y33980D01*
X264184Y33546D01*
Y33076D01*
X264005Y32642D01*
X263721Y32359D01*
X263500Y32028D01*
X263422Y31638D01*
X263500Y31248D01*
X263721Y30917D01*
X264005Y30633D01*
X264184Y30199D01*
Y29730D01*
X264005Y29296D01*
X263721Y29012D01*
X263500Y28681D01*
X263422Y28291D01*
X263500Y27901D01*
X263721Y27570D01*
X264005Y27287D01*
X264184Y26853D01*
Y26383D01*
X264005Y25949D01*
X263673Y25617D01*
X263239Y25438D01*
X262769D01*
X262335Y25617D01*
X262003Y25949D01*
X261824Y26383D01*
Y26853D01*
X262003Y27287D01*
X262287Y27570D01*
X262508Y27901D01*
X262585Y28291D01*
X262508Y28681D01*
X262287Y29012D01*
X262003Y29296D01*
X261824Y29730D01*
Y30199D01*
X262003Y30633D01*
X262287Y30917D01*
X262508Y31248D01*
X262585Y31638D01*
X262508Y32028D01*
X262287Y32359D01*
X262003Y32642D01*
X261824Y33076D01*
Y33546D01*
X262003Y33980D01*
X262287Y34263D01*
X262508Y34594D01*
X262585Y34984D01*
Y34984D01*
Y34984D01*
X262555Y35140D01*
X262508Y35374D01*
X262508Y35375D01*
Y35375D01*
X262397Y35541D01*
X262287Y35705D01*
X262287D01*
Y35705D01*
X262003Y35989D01*
X261824Y36423D01*
Y36892D01*
X262003Y37326D01*
X262287Y37610D01*
X262508Y37940D01*
X262585Y38331D01*
X262508Y38721D01*
X262287Y39052D01*
X262003Y39335D01*
X261824Y39769D01*
Y40239D01*
X262003Y40673D01*
X262287Y40956D01*
X262508Y41287D01*
X262585Y41677D01*
X262508Y42067D01*
X262287Y42398D01*
X262003Y42682D01*
X261824Y43116D01*
Y43585D01*
X262003Y44019D01*
X262287Y44303D01*
Y44303D01*
X262287D01*
X262508Y44633D01*
X262570Y44946D01*
X262585Y45024D01*
Y45024D01*
D01*
X262508Y45414D01*
X262360Y45635D01*
X262287Y45745D01*
X262287D01*
Y45745D01*
X262003Y46028D01*
X261824Y46462D01*
Y46932D01*
X262003Y47365D01*
X262287Y47649D01*
X262508Y47980D01*
X262585Y48370D01*
X262508Y48760D01*
X262287Y49091D01*
X262003Y49375D01*
X261824Y49808D01*
Y50278D01*
X262003Y50712D01*
X262287Y50996D01*
X262508Y51326D01*
X262585Y51717D01*
X262508Y52107D01*
X262287Y52438D01*
X262003Y52721D01*
X261824Y53155D01*
Y53625D01*
X262003Y54058D01*
X262287Y54342D01*
X262508Y54673D01*
X262585Y55063D01*
Y55063D01*
Y55063D01*
X262555Y55218D01*
X262508Y55453D01*
X262508Y55453D01*
Y55453D01*
X262397Y55620D01*
X262287Y55784D01*
X262287D01*
Y55784D01*
X262003Y56068D01*
X261824Y56501D01*
Y56971D01*
X262003Y57405D01*
X262287Y57688D01*
X262508Y58019D01*
X262585Y58410D01*
X262508Y58800D01*
X262287Y59130D01*
X262003Y59414D01*
X261824Y59848D01*
Y60317D01*
X262003Y60751D01*
X262287Y61035D01*
X262508Y61366D01*
X262585Y61756D01*
X262508Y62146D01*
X262287Y62477D01*
X262003Y62761D01*
X261824Y63194D01*
Y63664D01*
X262003Y64098D01*
X262287Y64381D01*
Y64381D01*
X262287D01*
X262508Y64712D01*
X262570Y65025D01*
X262585Y65102D01*
Y65102D01*
D01*
X262508Y65492D01*
X262360Y65714D01*
X262287Y65823D01*
X262287D01*
Y65823D01*
X262003Y66107D01*
X261824Y66541D01*
Y67010D01*
X262003Y67444D01*
X262287Y67728D01*
X262508Y68059D01*
X262585Y68449D01*
X262508Y68839D01*
X262287Y69170D01*
X262003Y69453D01*
X261824Y69887D01*
Y70357D01*
X262037Y70873D01*
X262067Y71024D01*
X262111Y71171D01*
X262106Y71218D01*
X262115Y71263D01*
X262085Y71414D01*
X262069Y71567D01*
X262047Y71608D01*
X262037Y71653D01*
X261952Y71781D01*
X261879Y71916D01*
X261728Y72096D01*
X261643Y72166D01*
X261570Y72249D01*
X261354Y72417D01*
X261232Y72478D01*
X261119Y72553D01*
X261056Y72566D01*
X260998Y72595D01*
X260862Y72604D01*
X260729Y72631D01*
X260665Y72618D01*
X260601Y72623D01*
X260472Y72580D01*
X260338Y72553D01*
X259774Y72320D01*
X259305D01*
X258871Y72499D01*
X258539Y72831D01*
X258379Y73218D01*
Y73782D01*
X258539Y74169D01*
X258871Y74501D01*
X259305Y74680D01*
X259774D01*
X260208Y74501D01*
D02*
G37*
D53*
X22500Y60984D02*
D03*
Y95000D02*
D03*
Y39016D02*
D03*
Y5000D02*
D03*
D54*
X6752Y60984D02*
D03*
Y95000D02*
D03*
Y39016D02*
D03*
Y5000D02*
D03*
D59*
X250000Y89000D02*
X254000D01*
D60*
X251657Y81343D02*
X256339Y76661D01*
X251657Y81343D02*
Y83000D01*
X256339Y33661D02*
Y76661D01*
Y33661D02*
X259500Y30500D01*
Y10500D02*
Y30500D01*
Y10500D02*
X265000Y5000D01*
D64*
X137500Y50000D02*
D03*
D65*
X142500D02*
D03*
X37500Y45000D02*
D03*
Y50000D02*
D03*
D66*
X265000Y5000D02*
D03*
Y95000D02*
D03*
D67*
X255000Y5000D02*
D03*
X245000D02*
D03*
X235000D02*
D03*
X225000D02*
D03*
X215000D02*
D03*
X205000D02*
D03*
X195000D02*
D03*
X185000D02*
D03*
X175000D02*
D03*
X165000D02*
D03*
X155000D02*
D03*
X145000D02*
D03*
X135000D02*
D03*
X125000D02*
D03*
X115000D02*
D03*
X105000D02*
D03*
X95000D02*
D03*
X85000D02*
D03*
X75000D02*
D03*
X65000D02*
D03*
X55000D02*
D03*
X45000D02*
D03*
X35000D02*
D03*
X255000Y95000D02*
D03*
X245000D02*
D03*
X235000D02*
D03*
X225000D02*
D03*
X215000D02*
D03*
X205000D02*
D03*
X195000D02*
D03*
X185000D02*
D03*
X175000D02*
D03*
X165000D02*
D03*
X155000D02*
D03*
X145000D02*
D03*
X135000D02*
D03*
X125000D02*
D03*
X115000D02*
D03*
X105000D02*
D03*
X95000D02*
D03*
X85000D02*
D03*
X75000D02*
D03*
X65000D02*
D03*
X55000D02*
D03*
X45000D02*
D03*
X35000D02*
D03*
D68*
X37500Y55000D02*
D03*
D69*
X177500Y61000D02*
D03*
X181500Y63000D02*
D03*
X75000Y89000D02*
D03*
X84000Y84000D02*
D03*
X62500Y68000D02*
D03*
X49000Y58000D02*
D03*
X63500Y50000D02*
D03*
X29500Y90500D02*
D03*
X32000Y58000D02*
D03*
X29000Y62500D02*
D03*
X45000Y72018D02*
D03*
Y81000D02*
D03*
X36500Y86000D02*
D03*
X37000Y74000D02*
D03*
X31500Y78000D02*
D03*
X35500D02*
D03*
X48000Y74000D02*
D03*
Y78000D02*
D03*
X184000Y51500D02*
D03*
Y45000D02*
D03*
X45000Y22000D02*
D03*
Y18000D02*
D03*
X187500Y46600D02*
D03*
Y50000D02*
D03*
X206000Y45000D02*
D03*
Y51500D02*
D03*
X81000Y18000D02*
D03*
X73000D02*
D03*
X79000Y21000D02*
D03*
X75000D02*
D03*
X202500Y44800D02*
D03*
Y51800D02*
D03*
X32000Y42000D02*
D03*
X29000Y39000D02*
D03*
X47500Y33000D02*
D03*
X45000Y26000D02*
D03*
Y14018D02*
D03*
X37000Y24000D02*
D03*
Y16000D02*
D03*
X30000Y9500D02*
D03*
X49000Y16000D02*
D03*
X53000D02*
D03*
X57000D02*
D03*
X51000Y29000D02*
D03*
X55000D02*
D03*
X59000D02*
D03*
X97500Y47500D02*
D03*
X102500D02*
D03*
X107500D02*
D03*
X112500D02*
D03*
X117500D02*
D03*
X97500Y40000D02*
D03*
X102500D02*
D03*
X107500D02*
D03*
X112500D02*
D03*
X117500D02*
D03*
Y32500D02*
D03*
X112500D02*
D03*
X107500D02*
D03*
X102500D02*
D03*
X97500D02*
D03*
X124000Y40000D02*
D03*
X149000Y53000D02*
D03*
X165000Y61000D02*
D03*
X69000Y75000D02*
D03*
X73000D02*
D03*
Y79000D02*
D03*
X69000D02*
D03*
X70000Y89000D02*
D03*
X48000Y85000D02*
D03*
X47000Y68000D02*
D03*
X65000Y54000D02*
D03*
X79000Y49000D02*
D03*
Y54000D02*
D03*
Y59000D02*
D03*
X73000Y65000D02*
D03*
X95000Y55000D02*
D03*
Y60000D02*
D03*
X158000Y61000D02*
D03*
X151000D02*
D03*
X88000Y72000D02*
D03*
X97000Y87000D02*
D03*
Y81000D02*
D03*
X131000Y83000D02*
D03*
X156000Y79000D02*
D03*
X161500Y63500D02*
D03*
X172000Y61000D02*
D03*
X186000Y63000D02*
D03*
X192000Y67000D02*
D03*
X186079Y70079D02*
D03*
X195000Y73000D02*
D03*
X166000Y79000D02*
D03*
X177000Y38000D02*
D03*
X184000D02*
D03*
X192000D02*
D03*
X199000D02*
D03*
X191000Y30000D02*
D03*
X198000D02*
D03*
X156000Y40000D02*
D03*
X162000Y14000D02*
D03*
X169000Y20000D02*
D03*
X205000Y22000D02*
D03*
X265000Y18000D02*
D03*
X254000Y89000D02*
D03*
X250000D02*
D03*
X246000D02*
D03*
X259500Y82000D02*
D03*
X242800Y46800D02*
D03*
X236200D02*
D03*
X242800Y53200D02*
D03*
X236200D02*
D03*
X250008Y56492D02*
D03*
Y49996D02*
D03*
Y43500D02*
D03*
X239508Y60504D02*
D03*
X239500Y39496D02*
D03*
X229000Y43508D02*
D03*
Y50004D02*
D03*
Y56500D02*
D03*
X259539Y73500D02*
D03*
X263004Y73469D02*
D03*
Y70122D02*
D03*
Y66776D02*
D03*
Y63429D02*
D03*
Y60083D02*
D03*
Y56736D02*
D03*
Y53390D02*
D03*
Y50043D02*
D03*
Y46697D02*
D03*
Y43350D02*
D03*
Y40004D02*
D03*
Y36658D02*
D03*
Y33311D02*
D03*
Y29965D02*
D03*
Y26618D02*
D03*
X181500Y77000D02*
D03*
X205000Y75000D02*
D03*
X246193Y67500D02*
D03*
X256279Y26500D02*
D03*
X252933D02*
D03*
X216035Y73500D02*
D03*
X216083Y32500D02*
D03*
X246240Y26500D02*
D03*
X249547Y32500D02*
D03*
X239547Y26500D02*
D03*
X242854Y32500D02*
D03*
X232854Y26500D02*
D03*
X236161Y32500D02*
D03*
X226161Y26500D02*
D03*
X229468Y32500D02*
D03*
X219468Y26500D02*
D03*
X222776Y32500D02*
D03*
X222728Y73500D02*
D03*
X219421Y67500D02*
D03*
X229421Y73500D02*
D03*
X226114Y67500D02*
D03*
X236114Y73500D02*
D03*
X232807Y67500D02*
D03*
X239500D02*
D03*
X242807Y73500D02*
D03*
X249500D02*
D03*
D70*
X79000Y64940D02*
Y84940D01*
X83000Y88200D02*
X95800D01*
X82260D02*
X83000D01*
X95800D02*
X97000Y87000D01*
X79000Y84940D02*
X82260Y88200D01*
X97000Y87000D02*
X111000D01*
X125500Y72500D02*
X142000D01*
X111000Y87000D02*
X125500Y72500D01*
X254541Y94541D02*
X255000Y95000D01*
X254541Y89541D02*
Y94541D01*
X254000Y89000D02*
X254541Y89541D01*
X251657Y83000D02*
X254000Y85343D01*
Y89000D01*
X187500Y83000D02*
X251657D01*
X181500Y77000D02*
X187500Y83000D01*
X142000Y72500D02*
X177000D01*
X142500Y50000D02*
Y72000D01*
X142000Y72500D02*
X142500Y72000D01*
X177000Y72500D02*
X181500Y77000D01*
X79000Y64940D02*
X83200Y60740D01*
Y52260D02*
Y60740D01*
X79000Y49000D02*
X79940D01*
X83200Y52260D01*
X57000Y16000D02*
X59500D01*
X66000Y22500D01*
X133500Y46000D02*
X137500Y50000D01*
D71*
X66000Y22500D02*
X70800Y27300D01*
X121800D01*
X133500Y39000D02*
Y46000D01*
X121800Y27300D02*
X133500Y39000D01*
M02*
